<svg xmlns="http://www.w3.org/2000/svg" xmlns:xlink="http://www.w3.org/1999/xlink" version="1.1" x="0px" y="0px" viewBox="0 0 100 125" enable-background="new 0 0 100 100" xml:space="preserve"><path fill="#000000" d="M94.687,37.931l0.112-0.303c0.011-0.03,0.019-0.062,0.021-0.094l0.066-0.688  c0.003-0.032,0.001-0.064-0.004-0.096l-0.114-0.683c-0.005-0.031-0.014-0.063-0.027-0.092l-0.287-0.63  c-0.013-0.029-0.03-0.056-0.051-0.081l-0.439-0.533c-0.021-0.025-0.045-0.048-0.071-0.066l-0.563-0.401  c-0.025-0.019-0.055-0.034-0.084-0.046l-0.013-0.005v-0.577c0-0.203-0.165-0.368-0.369-0.368h-1.956  c-0.203,0-0.368,0.165-0.368,0.368v0.582l-0.224,0.104c-0.029,0.013-0.058,0.03-0.083,0.051l-0.533,0.438  c-0.023,0.021-0.047,0.045-0.065,0.071l-0.401,0.562c-0.02,0.026-0.034,0.055-0.046,0.085l-0.241,0.649  c-0.012,0.028-0.019,0.061-0.021,0.092l-0.067,0.689c-0.003,0.032-0.001,0.063,0.004,0.096l0.114,0.683  c0.005,0.032,0.016,0.062,0.028,0.092l0.286,0.63c0.013,0.029,0.031,0.057,0.051,0.081l0.44,0.534  c0.021,0.024,0.045,0.047,0.07,0.066l0.041,0.027L75.53,43.56l-6.516-0.385l-0.188-1.096c-0.005-0.032-0.014-0.063-0.028-0.093  l-0.586-1.275c-0.013-0.029-0.03-0.058-0.051-0.082l-0.897-1.081c-0.021-0.024-0.045-0.046-0.07-0.065l-1.146-0.812  c-0.026-0.018-0.055-0.032-0.085-0.044l-1.316-0.487c-0.03-0.012-0.062-0.02-0.094-0.021l-1.399-0.131  c-0.011-0.002-0.022-0.002-0.034-0.002c-0.021,0-0.04,0.002-0.062,0.006l-1.384,0.235c-0.031,0.007-0.063,0.016-0.092,0.029  l-1.276,0.587c-0.029,0.013-0.057,0.03-0.081,0.051l-1.082,0.896c-0.023,0.021-0.046,0.044-0.064,0.071l-0.812,1.146  c-0.018,0.025-0.033,0.055-0.045,0.086l-0.487,1.316c-0.011,0.03-0.019,0.062-0.021,0.094l-0.015,0.166  c-0.045-0.038-0.099-0.065-0.158-0.08l-0.83-0.195c-0.027-0.006-0.057-0.01-0.085-0.01h-0.634l-0.945-1.853  c-0.062-0.124-0.189-0.202-0.329-0.202H46.89c-0.139,0-0.266,0.078-0.329,0.202l-0.944,1.853h-0.635  c-0.028,0-0.056,0.004-0.084,0.01l-0.831,0.195c-0.058,0.015-0.108,0.041-0.152,0.076l-0.37-1.237  c-0.009-0.032-0.021-0.062-0.039-0.089l-0.736-1.196c-0.017-0.026-0.037-0.052-0.06-0.073l-1.021-0.965  c-0.023-0.023-0.049-0.042-0.078-0.058l-1.235-0.668c-0.029-0.015-0.058-0.026-0.09-0.034l-1.366-0.324  c-0.027-0.007-0.057-0.011-0.085-0.011c-0.004,0-0.008,0-0.012,0l-1.403,0.041c-0.032,0-0.063,0.005-0.096,0.015l-1.346,0.401  c-0.03,0.009-0.06,0.023-0.088,0.039l-1.195,0.736c-0.026,0.017-0.052,0.037-0.075,0.062l-0.965,1.021  c-0.021,0.022-0.04,0.05-0.056,0.077l-0.668,1.237c-0.015,0.027-0.026,0.058-0.034,0.09l-0.264,1.106l-6.616,0.581L11.65,39.023  l0.039-0.028c0.026-0.02,0.051-0.041,0.071-0.066l0.438-0.533c0.022-0.025,0.038-0.052,0.053-0.081l0.287-0.63  c0.013-0.029,0.022-0.061,0.027-0.093l0.114-0.682c0.005-0.031,0.007-0.063,0.003-0.096l-0.066-0.688  c-0.002-0.032-0.01-0.063-0.021-0.094l-0.242-0.647c-0.012-0.03-0.027-0.06-0.045-0.085l-0.402-0.564  c-0.019-0.025-0.04-0.049-0.065-0.069l-0.533-0.44c-0.024-0.021-0.053-0.037-0.082-0.051l-0.196-0.09V33.49  c0-0.203-0.165-0.368-0.368-0.368H8.703c-0.203,0-0.368,0.165-0.368,0.368v0.567l-0.039,0.016c-0.03,0.01-0.059,0.025-0.085,0.044  l-0.563,0.401c-0.025,0.02-0.05,0.042-0.07,0.066l-0.439,0.534C7.116,35.143,7.1,35.17,7.086,35.2l-0.287,0.63  c-0.013,0.029-0.022,0.06-0.027,0.092l-0.114,0.682C6.651,36.636,6.65,36.667,6.654,36.7l0.066,0.688  c0.002,0.032,0.01,0.063,0.021,0.093l0.153,0.412c-0.009,0.018-0.017,0.036-0.021,0.056l-0.2,0.653  c-0.061,0.195,0.049,0.401,0.243,0.461l1.077,0.329l0.341,0.104v0.257c0,0.203,0.165,0.393,0.368,0.393h1.752l23.309,7.126  l0.029,0.047c0.017,0.027,0.037,0.053,0.062,0.074l1.021,0.965c0.022,0.022,0.049,0.041,0.077,0.058l1.235,0.666  c0.029,0.016,0.06,0.028,0.09,0.035l1.367,0.324c0.028,0.008,0.057,0.011,0.085,0.011c0.004,0,0.007,0,0.011,0l1.404-0.04  c0.031-0.001,0.063-0.006,0.095-0.015l0.747-0.224l1.6,0.49l-0.134,0.41c-0.024,0.074-0.024,0.153,0,0.229l0.498,1.533l-1.71,0.523  l-0.426-0.176c-0.029-0.012-0.061-0.021-0.093-0.025l-1.393-0.184c-0.017,0-0.031-0.002-0.048-0.002s-0.032,0.002-0.049,0.002  l-1.393,0.184c-0.031,0.004-0.062,0.014-0.093,0.025l-1.297,0.537c-0.029,0.014-0.058,0.029-0.084,0.049l-1.113,0.855  c-0.025,0.02-0.049,0.043-0.068,0.068l-0.521,0.678l-22.506,6.879H9.383c-0.205,0-0.37,0.166-0.37,0.369v0.287l-1.483,0.453  c-0.194,0.061-0.304,0.268-0.245,0.461l0.2,0.656C7.5,63.525,7.526,63.57,7.56,63.607L7.446,63.91  c-0.011,0.031-0.019,0.062-0.021,0.094l-0.065,0.689c-0.003,0.031-0.003,0.064,0.002,0.096l0.114,0.684  c0.007,0.031,0.016,0.061,0.029,0.09l0.287,0.631c0.013,0.029,0.03,0.057,0.051,0.08l0.439,0.535  c0.021,0.023,0.044,0.047,0.07,0.064l0.562,0.402C8.942,67.293,8.97,67.309,9,67.32l0.013,0.006v0.576  c0,0.203,0.165,0.369,0.37,0.369h1.956c0.203,0,0.368-0.166,0.368-0.369V67.32l0.224-0.102c0.029-0.014,0.057-0.031,0.081-0.051  l0.534-0.441c0.024-0.02,0.047-0.043,0.066-0.07l0.401-0.562c0.019-0.027,0.034-0.055,0.044-0.084l0.243-0.648  c0.011-0.031,0.019-0.062,0.021-0.094l0.067-0.688c0.002-0.033,0.001-0.064-0.004-0.098l-0.114-0.682  c-0.006-0.033-0.016-0.062-0.028-0.092l-0.287-0.631c-0.014-0.029-0.03-0.057-0.051-0.08l-0.44-0.535  c-0.021-0.023-0.044-0.045-0.069-0.064l-0.041-0.029l13.591-4.154l6.875,1.225l0.461,1.111c0.012,0.029,0.028,0.057,0.047,0.082  l0.856,1.115c0.02,0.025,0.043,0.049,0.068,0.068l1.113,0.855c0.026,0.018,0.055,0.035,0.084,0.047l1.297,0.537  c0.03,0.014,0.062,0.021,0.093,0.025l1.393,0.184c0.017,0.002,0.032,0.004,0.049,0.004s0.031-0.002,0.048-0.004l1.393-0.184  c0.032-0.004,0.063-0.012,0.093-0.025l1.298-0.537c0.03-0.012,0.058-0.029,0.083-0.047l1.115-0.855  c0.025-0.02,0.048-0.043,0.067-0.068l0.855-1.115c0.019-0.025,0.035-0.053,0.048-0.082l0.537-1.299  c0.013-0.029,0.021-0.061,0.024-0.092l0.183-1.389c0.014,0.006,0.026,0.01,0.041,0.014l6.652,1.564  c0.027,0.008,0.056,0.01,0.084,0.01c0.027,0,0.057-0.002,0.085-0.01l6.65-1.564c0.015-0.004,0.028-0.008,0.041-0.014l0.183,1.389  c0.004,0.031,0.013,0.062,0.025,0.092l0.537,1.299c0.013,0.029,0.028,0.057,0.048,0.082l0.854,1.115  c0.021,0.025,0.044,0.049,0.069,0.068l1.114,0.855c0.025,0.018,0.054,0.035,0.082,0.047l1.298,0.537  c0.03,0.014,0.061,0.021,0.094,0.025l1.392,0.184c0.017,0.002,0.033,0.004,0.048,0.004c0.017,0,0.033-0.002,0.049-0.004l1.393-0.184  c0.031-0.004,0.063-0.012,0.093-0.025l1.297-0.537c0.031-0.012,0.059-0.029,0.084-0.047l1.115-0.855  c0.025-0.02,0.048-0.043,0.067-0.068l0.855-1.115c0.019-0.025,0.035-0.053,0.048-0.082l0.462-1.115l6.828-1.338l13.665,4.18  l-0.041,0.027c-0.025,0.02-0.049,0.041-0.069,0.066l-0.44,0.533c-0.021,0.025-0.037,0.051-0.051,0.08l-0.287,0.631  c-0.013,0.029-0.022,0.061-0.028,0.092l-0.114,0.682c-0.005,0.031-0.006,0.064-0.004,0.098l0.067,0.688  c0.003,0.031,0.011,0.062,0.021,0.094l0.243,0.646c0.01,0.031,0.025,0.061,0.044,0.086l0.402,0.564  c0.019,0.025,0.041,0.049,0.065,0.068l0.534,0.441c0.024,0.02,0.052,0.037,0.081,0.051l0.197,0.09v0.594  c0,0.203,0.165,0.369,0.368,0.369h1.956c0.204,0,0.369-0.166,0.369-0.369v-0.566l0.04-0.014c0.03-0.012,0.058-0.027,0.085-0.047  l0.562-0.4c0.026-0.02,0.051-0.041,0.07-0.066l0.439-0.533c0.021-0.025,0.038-0.053,0.051-0.082l0.287-0.631  c0.014-0.029,0.022-0.059,0.029-0.09l0.113-0.684c0.006-0.031,0.007-0.064,0.003-0.096l-0.065-0.689  c-0.004-0.031-0.011-0.062-0.021-0.092l-0.113-0.305c0.033-0.037,0.06-0.084,0.075-0.135l0.171-0.561  c0.029-0.094,0.02-0.193-0.026-0.281c-0.046-0.086-0.124-0.15-0.219-0.18l-1.212-0.371c-0.018-0.01-0.034-0.021-0.046-0.025  l-0.224-0.104v-0.311c0-0.203-0.165-0.393-0.369-0.393h-1.956c-0.032,0-0.062,0.004-0.092,0.012l-22.235-6.797l-0.521-0.678  c-0.02-0.025-0.042-0.049-0.067-0.068l-1.115-0.855c-0.025-0.02-0.053-0.035-0.084-0.049l-1.297-0.537  c-0.029-0.012-0.062-0.021-0.093-0.025l-1.393-0.184c-0.016,0-0.032-0.002-0.049-0.002c-0.015,0-0.031,0.002-0.048,0.002  l-1.392,0.184c-0.033,0.004-0.063,0.014-0.094,0.025l-0.424,0.176l-1.71-0.523l0.497-1.533c0.023-0.075,0.023-0.154,0-0.229  l-0.127-0.389l1.618-0.494l0.357,0.132c0.03,0.012,0.062,0.019,0.094,0.022l1.399,0.129c0.01,0.001,0.022,0.003,0.034,0.003  c0.021,0,0.041-0.003,0.061-0.007l1.386-0.236c0.031-0.005,0.062-0.014,0.091-0.027l1.277-0.587c0.029-0.013,0.056-0.03,0.081-0.051  l1.081-0.897c0.025-0.021,0.047-0.044,0.065-0.069l0.201-0.285l23.038-7.043c0.03,0.012,0.063,0.018,0.097,0.018h1.956  c0.204,0,0.369-0.165,0.369-0.368v-0.348l0.197-0.089c0.018-0.009,0.035-0.019,0.052-0.029l1.206-0.369  c0.194-0.06,0.305-0.266,0.245-0.46l-0.172-0.561C94.746,38.016,94.719,37.97,94.687,37.931z M93.194,38.338  c0.003-0.003-0.001-0.007,0.001-0.009c0.006-0.004,0.013-0.003,0.017-0.008l0.309-0.375c0.003-0.003-0.004-0.007-0.001-0.011  c0.004-0.005,0.012-0.004,0.014-0.009l0.202-0.442c0.003-0.005-0.007-0.008-0.005-0.013s0.011-0.004,0.013-0.01l0.08-0.48  c0.001-0.006-0.009-0.006-0.009-0.013c0-0.005,0.009-0.005,0.009-0.011l-0.047-0.482c0-0.005-0.011-0.004-0.012-0.009  c-0.001-0.007,0.009-0.009,0.006-0.015l-0.17-0.455c-0.002-0.007-0.012-0.002-0.014-0.007c-0.003-0.005,0.006-0.01,0.002-0.015  l-0.281-0.396c-0.004-0.005-0.012,0.002-0.016-0.002c-0.004-0.006,0.004-0.012-0.001-0.016l-0.335-0.276v-0.244l0.391,0.279  l0.358,0.436l0.233,0.512l0.094,0.562l-0.053,0.557l-0.2,0.531l-0.326,0.458l-0.437,0.359l-0.061,0.028v-0.041v-0.216L93.194,38.338  z M92.956,38.283v-2.758l0.209,0.173l0.267,0.374l0.163,0.435l0.044,0.454l-0.077,0.461l-0.19,0.418l-0.293,0.356L92.956,38.283z   M92.956,38.966l0.148-0.067c0.002-0.001,0-0.005,0.002-0.006c0.006-0.003,0.013-0.003,0.019-0.007l0.454-0.374  c0.003-0.003-0.001-0.008,0.001-0.01c0.004-0.004,0.012-0.003,0.016-0.008l0.342-0.479c0.002-0.004-0.004-0.008-0.003-0.012  c0.004-0.007,0.012-0.004,0.014-0.01l0.207-0.553c0.002-0.005-0.006-0.008-0.006-0.013c0.002-0.005,0.011-0.005,0.011-0.01  l0.057-0.586c0-0.005-0.009-0.005-0.009-0.011c0-0.007,0.01-0.007,0.009-0.013l-0.097-0.582c-0.001-0.006-0.011-0.004-0.013-0.009  c-0.001-0.005,0.008-0.009,0.005-0.014l-0.245-0.536c-0.002-0.005-0.012,0-0.014-0.005c-0.003-0.005,0.005-0.01,0.001-0.016  l-0.373-0.453c-0.004-0.005-0.01,0.003-0.016-0.001c-0.004-0.004,0.003-0.012-0.002-0.016l-0.48-0.343  c-0.005-0.003-0.01,0.006-0.017,0.003c-0.005-0.003,0-0.012-0.006-0.014l-0.005-0.002V34.81v-0.208l0.116,0.044l0.544,0.387  l0.424,0.517l0.275,0.604l0.111,0.663l-0.063,0.66l-0.234,0.628l-0.071,0.1l-0.314,0.442l-0.493,0.406l-0.022,0.019l-0.271,0.123  V38.966z M93.868,38.782c0.003-0.003-0.001-0.007,0.002-0.011c0.004-0.004,0.011-0.002,0.015-0.008l0.305-0.426l0.158-0.05  l0.117,0.387l-0.742,0.228L93.868,38.782z M90.999,38.631v-0.141v-3.165v-0.423h1.771v0.427v3.132v0.17H90.999z M92.771,38.817  v0.092v0.43v0.468h-1.771v-0.459V38.93v-0.113H92.771z M90.999,34.717v-0.262v-0.727h1.771v0.741v0.247H90.999z M90.55,35.468  c-0.005,0.003,0.002,0.011-0.002,0.015s-0.012-0.004-0.016,0.001l-0.309,0.375c-0.004,0.005,0.004,0.01,0.001,0.016  c-0.003,0.003-0.011,0-0.014,0.005l-0.202,0.441c-0.002,0.005,0.007,0.009,0.006,0.014c-0.002,0.006-0.012,0.003-0.013,0.01  l-0.08,0.479c-0.002,0.006,0.009,0.007,0.009,0.013s-0.009,0.006-0.009,0.011l0.047,0.484c0,0.006,0.009,0.005,0.012,0.01  c0,0.005-0.008,0.008-0.007,0.013l0.17,0.454c0.003,0.007,0.011,0.004,0.015,0.01c0.001,0.005-0.006,0.009-0.003,0.013l0.282,0.396  c0.003,0.005,0.011,0.004,0.015,0.008c0.003,0.003-0.001,0.008,0.001,0.01l0.361,0.298v0.184v0.059l-0.417-0.297l-0.359-0.438  l-0.233-0.511l-0.094-0.562l0.054-0.558l0.199-0.531l0.326-0.459l0.437-0.359l0.088-0.039v0.249L90.55,35.468z M90.814,35.504v2.797  l-0.235-0.192l-0.267-0.376l-0.162-0.434l-0.045-0.455l0.078-0.46l0.19-0.418l0.293-0.356L90.814,35.504z M90.639,34.907  c-0.005,0.003-0.001,0.012-0.005,0.014c-0.005,0.003-0.012-0.005-0.016-0.001l-0.454,0.374c-0.005,0.004,0.003,0.012-0.001,0.016  s-0.012-0.003-0.016,0.003l-0.342,0.479c-0.003,0.005,0.006,0.009,0.003,0.014c-0.003,0.006-0.012,0.002-0.014,0.007l-0.207,0.551  c-0.003,0.007,0.008,0.009,0.006,0.014c-0.001,0.007-0.011,0.004-0.011,0.011l-0.057,0.586c0,0.006,0.01,0.006,0.01,0.012  c0,0.007-0.011,0.007-0.01,0.013l0.097,0.58c0.002,0.007,0.011,0.005,0.013,0.011c0.002,0.005-0.008,0.007-0.005,0.013l0.245,0.535  c0.003,0.005,0.01,0.004,0.014,0.009c0.003,0.004-0.004,0.008-0.001,0.012l0.374,0.454c0.004,0.006,0.012,0.004,0.017,0.008  c0.003,0.003-0.001,0.007,0.002,0.009l0.479,0.342c0.005,0.004,0.013,0.004,0.018,0.006c0.003,0,0,0.004,0.003,0.006l0.034,0.013  v0.221l-0.013-0.005c-0.002-0.002-0.004-0.002-0.006-0.003l-0.007-0.003h-0.002l0,0l-0.116-0.043l-0.542-0.387l-0.426-0.516  l-0.275-0.605l-0.111-0.663l0.063-0.661l0.234-0.626l0.388-0.543l0.515-0.425l0.298-0.136v0.211v0.017L90.639,34.907z   M89.938,63.107c-0.006,0.004,0.001,0.012-0.003,0.014c-0.004,0.004-0.012-0.002-0.016,0.002l-0.308,0.375  c-0.004,0.004,0.003,0.01,0.001,0.016c-0.003,0.004-0.012,0-0.014,0.004l-0.202,0.441c-0.003,0.006,0.006,0.01,0.005,0.016  c-0.003,0.004-0.012,0.002-0.013,0.008l-0.08,0.48c-0.001,0.006,0.009,0.008,0.009,0.012c0,0.008-0.009,0.008-0.009,0.012  l0.046,0.482c0,0.006,0.009,0.006,0.012,0.01c0,0.006-0.009,0.008-0.007,0.014l0.17,0.455c0.003,0.008,0.011,0.004,0.015,0.01  c0.001,0.004-0.006,0.008-0.003,0.012l0.283,0.395c0.004,0.006,0.012,0.004,0.016,0.008c0.002,0.004-0.002,0.008,0.001,0.012  l0.334,0.275v0.246l-0.062-0.029l-0.437-0.359l-0.326-0.457l-0.198-0.531l-0.055-0.557l0.096-0.562l0.232-0.51l0.359-0.438  l0.39-0.279v0.039v0.217L89.938,63.107z M90.176,63.162v2.756l-0.208-0.17l-0.269-0.375l-0.162-0.434l-0.043-0.455l0.077-0.461  l0.19-0.418l0.293-0.357L90.176,63.162z M90.171,62.465c-0.007,0.002-0.002,0.012-0.007,0.014c-0.006,0.002-0.012-0.006-0.017-0.002  l-0.479,0.342c-0.005,0.004,0.001,0.012-0.003,0.016c-0.003,0.004-0.011-0.004-0.015,0.002l-0.375,0.453  c-0.004,0.006,0.004,0.01,0.002,0.016c-0.003,0.004-0.012,0-0.015,0.006l-0.243,0.533c-0.003,0.006,0.006,0.01,0.005,0.014  c-0.003,0.006-0.012,0.004-0.013,0.01l-0.098,0.582c-0.001,0.006,0.009,0.008,0.009,0.012c0,0.006-0.009,0.006-0.009,0.012  l0.057,0.586c0,0.006,0.009,0.004,0.012,0.01c0,0.006-0.009,0.008-0.006,0.012l0.205,0.553c0.003,0.006,0.011,0.004,0.014,0.01  c0.002,0.004-0.005,0.008-0.002,0.012l0.342,0.479c0.003,0.006,0.011,0.004,0.015,0.008c0.003,0.004-0.001,0.008,0.001,0.01  l0.455,0.375c0.005,0.004,0.013,0.004,0.018,0.006c0.003,0.002,0,0.006,0.003,0.008l0.148,0.066v0.029v0.199l-0.271-0.123  l-0.516-0.426l-0.387-0.541l-0.234-0.627l-0.064-0.66l0.111-0.664l0.276-0.605l0.425-0.516l0.541-0.387l0.118-0.045v0.223  L90.171,62.465z M90.14,62.059l-14.479-4.428l-7.442-2.275l-0.149-0.361c-0.003-0.006-0.012-0.002-0.014-0.008  c-0.003-0.004,0.005-0.01,0.001-0.014l-0.089-0.115l22.208,6.789v0.398L90.14,62.059z M68.786,57.719  c0-0.006,0.011-0.006,0.009-0.012l-0.183-1.393c-0.001-0.006-0.01-0.004-0.013-0.01c-0.001-0.006,0.009-0.01,0.007-0.014  l-0.296-0.715l6.946,2.123l-6.628,1.299l0.166-1.268C68.797,57.725,68.786,57.725,68.786,57.719z M68.065,55.467l0.365,0.883  l0.181,1.369l-0.181,1.369l-0.526,1.273l-0.842,1.096l-1.096,0.842l-1.274,0.527l-1.369,0.18l-1.368-0.18l-1.274-0.527l-1.095-0.842  l-0.842-1.096l-0.526-1.273l-0.182-1.369l0.182-1.369l0.526-1.273l0.842-1.096l1.035-0.795l0.06-0.045l0.738-0.307l0.536-0.221  l1.368-0.182l1.369,0.182l1.274,0.527l1.096,0.84l0.584,0.762h0.001l0.256,0.33L68.065,55.467z M59.774,53.256l-0.479,0.367  c-0.025,0.02-0.049,0.043-0.069,0.068l-0.301,0.391l0.321-0.988L59.774,53.256z M60.598,52.975c-0.005,0.002-0.001,0.01-0.005,0.014  c-0.005,0.002-0.01-0.006-0.015-0.002l-0.032,0.023l-1.51-0.461l0,0l0,0h-0.001l-1.608-0.492l0.118-0.387l1.616,0.494l0,0  c0.001,0,0.002,0,0.002,0l1.949,0.598L60.598,52.975z M59.129,51.963l-1.618-0.494c-0.047-0.02-0.101,0.014-0.114,0.061  l-0.172,0.562c-0.015,0.047,0.012,0.1,0.062,0.113l1.605,0.49l-1.478,4.557l-3.593-3.674l0.517-1.404l0.524-1.405l0,0  c0-0.001,0.001-0.001,0.001-0.001l0.101-0.293h2.197c0.003,0,0.005,0,0.007-0.001l2.505-0.186L59.129,51.963z M32.818,57.719  c0,0.006-0.011,0.006-0.009,0.012L32.976,59l-6.664-1.188l6.935-2.119l-0.248,0.598c-0.002,0.004,0.008,0.008,0.007,0.014  c-0.003,0.006-0.012,0.004-0.013,0.01l-0.183,1.393C32.808,57.713,32.818,57.713,32.818,57.719z M11.695,66.072  c0.003-0.002-0.001-0.006,0.002-0.008c0.005-0.004,0.013-0.004,0.017-0.008l0.308-0.377c0.003-0.004-0.003-0.008-0.001-0.012  c0.004-0.004,0.012-0.004,0.014-0.008l0.202-0.441c0.003-0.006-0.006-0.008-0.005-0.014c0.003-0.004,0.012-0.004,0.013-0.01  l0.08-0.479c0.001-0.006-0.009-0.006-0.009-0.014c0-0.004,0.009-0.004,0.009-0.01l-0.047-0.484c0-0.006-0.011-0.004-0.012-0.01  s0.009-0.008,0.007-0.014l-0.171-0.455c-0.002-0.006-0.011,0-0.014-0.006c-0.003-0.004,0.007-0.01,0.003-0.016l-0.282-0.395  c-0.004-0.004-0.012,0.002-0.016-0.002c-0.003-0.006,0.004-0.012-0.001-0.016l-0.36-0.299v-0.184v-0.059l0.416,0.297l0.359,0.438  l0.232,0.512l0.096,0.562l-0.055,0.557l-0.198,0.529l-0.326,0.461l-0.437,0.359l-0.088,0.039v-0.25L11.695,66.072z M11.432,66.035  v-2.797l0.234,0.193l0.267,0.375l0.163,0.432l0.044,0.457l-0.077,0.459l-0.19,0.418l-0.293,0.357L11.432,66.035z M11.606,66.633  c0.003-0.002,0-0.006,0.003-0.008c0.005-0.002,0.013-0.002,0.018-0.006l0.455-0.375c0.002-0.002-0.002-0.006,0.001-0.01  c0.004-0.004,0.012-0.002,0.015-0.008l0.342-0.479c0.003-0.004-0.004-0.008-0.002-0.014c0.003-0.004,0.011-0.002,0.014-0.008  l0.205-0.551c0.002-0.006-0.006-0.008-0.006-0.014c0.003-0.006,0.012-0.004,0.012-0.01l0.057-0.586c0-0.006-0.009-0.006-0.009-0.012  c0-0.004,0.01-0.006,0.009-0.012l-0.098-0.582c-0.001-0.006-0.01-0.004-0.013-0.008c-0.001-0.006,0.008-0.01,0.005-0.016  l-0.243-0.535c-0.003-0.004-0.012,0-0.015-0.004c-0.002-0.006,0.006-0.012,0.002-0.016l-0.375-0.455  c-0.004-0.006-0.01,0.002-0.015-0.002c-0.004-0.004,0.002-0.01-0.003-0.014l-0.479-0.342c-0.005-0.004-0.009,0.004-0.014,0.002  c-0.006-0.002-0.002-0.012-0.007-0.014l-0.034-0.014v-0.221l0.025,0.01l0.119,0.045l0.541,0.387l0.425,0.516l0.276,0.605  l0.111,0.664l-0.064,0.66l-0.234,0.625l-0.387,0.543l-0.516,0.426l-0.297,0.135v-0.211v-0.016L11.606,66.633z M11.495,62.152  l-0.063-0.023v-0.482l22.205-6.789l-0.089,0.115c-0.004,0.006,0.004,0.01,0.003,0.016c-0.004,0.004-0.012,0-0.014,0.006l-0.2,0.479  l-7.441,2.275L11.495,62.152z M33.174,56.35l0.317-0.766l0.211-0.508l0.256-0.334l0.584-0.762l1.096-0.84l1.274-0.527l1.369-0.182  l1.368,0.182l0.536,0.221l0.738,0.307l0.155,0.119l0.94,0.721l0.841,1.096l0.528,1.273l0.18,1.369l-0.18,1.369l-0.528,1.273  l-0.841,1.096l-1.096,0.842l-1.274,0.527l-1.368,0.18l-1.369-0.18l-1.274-0.527l-1.096-0.842l-0.84-1.096l-0.528-1.273l-0.181-1.369  L33.174,56.35z M42.378,53.691c-0.02-0.025-0.042-0.049-0.067-0.068l-0.384-0.295l0.462-0.141l0.29,0.895L42.378,53.691z   M42.6,52.643L42.6,52.643L42.6,52.643l-1.445,0.441l-0.127-0.098c-0.006-0.004-0.011,0.004-0.016,0.002  c-0.004-0.004,0-0.012-0.005-0.014l-0.515-0.213l1.949-0.598c0,0,0.001,0,0.002,0l0,0l1.618-0.494l0.146,0.48l-1.605,0.492H42.6z   M44.348,52.299c0.049-0.014,0.076-0.066,0.062-0.113l-0.199-0.656c-0.015-0.047-0.066-0.08-0.114-0.061l-1.62,0.494l-0.544-1.674  l2.507,0.186c0.001,0.001,0.004,0.001,0.006,0.001h2.196l0.102,0.293c0,0.001,0.001,0,0.001,0.001v0.002l0.265,0.696l0,0  l0.776,2.111l-3.594,3.674l-1.447-4.463L44.348,52.299z M11.412,38.627l-0.542,0.386l-0.118,0.045v-0.223l0.006-0.001  c0.001,0,0-0.004,0.002-0.005c0.007-0.003,0.015-0.001,0.021-0.007l0.479-0.343c0.003-0.002-0.001-0.006,0.002-0.009  c0.005-0.004,0.013-0.002,0.017-0.007l0.374-0.454c0.003-0.003-0.004-0.007-0.001-0.011c0.004-0.005,0.012-0.004,0.014-0.009  l0.244-0.536c0.002-0.005-0.007-0.008-0.005-0.013s0.011-0.004,0.013-0.01l0.098-0.582c0.001-0.006-0.009-0.008-0.009-0.013  c0-0.006,0.009-0.006,0.009-0.011l-0.058-0.586c0-0.006-0.01-0.004-0.012-0.009c-0.001-0.006,0.01-0.009,0.007-0.014l-0.206-0.553  c-0.002-0.005-0.011-0.001-0.014-0.006s0.007-0.011,0.003-0.016l-0.342-0.479c-0.004-0.005-0.01,0.001-0.016-0.002  c-0.004-0.004,0.004-0.012-0.001-0.016l-0.454-0.375c-0.006-0.003-0.011,0.004-0.016,0.002c-0.004-0.003,0-0.012-0.005-0.015  l-0.15-0.068v-0.027v-0.199l0.271,0.123l0.517,0.425l0.387,0.542l0.234,0.627l0.063,0.66l-0.111,0.663l-0.275,0.605L11.412,38.627z   M10.991,38.192c0.002-0.002-0.001-0.006,0.001-0.009c0.005-0.004,0.013-0.002,0.017-0.008l0.309-0.374  c0.003-0.004-0.004-0.008-0.001-0.012c0.004-0.005,0.011-0.004,0.014-0.009l0.202-0.441c0.002-0.005-0.007-0.008-0.006-0.013  c0.003-0.005,0.012-0.004,0.013-0.011l0.08-0.479c0.002-0.007-0.009-0.007-0.009-0.013c0-0.005,0.009-0.005,0.009-0.012  l-0.047-0.482c0-0.006-0.01-0.004-0.011-0.009c-0.002-0.006,0.009-0.009,0.006-0.014l-0.17-0.456  c-0.003-0.006-0.012-0.001-0.014-0.006c-0.003-0.006,0.006-0.011,0.002-0.016l-0.281-0.395c-0.004-0.005-0.011,0.001-0.016-0.003  c-0.004-0.005,0.004-0.012-0.001-0.015l-0.336-0.277v-0.245l0.062,0.028l0.437,0.359l0.328,0.458l0.196,0.53l0.055,0.558  l-0.095,0.562l-0.232,0.512l-0.359,0.436l-0.392,0.279v-0.039v-0.216L10.991,38.192z M10.752,38.136v-2.757l0.21,0.172l0.267,0.375  l0.162,0.434l0.045,0.455l-0.077,0.461l-0.19,0.417l-0.294,0.357L10.752,38.136z M10.752,39.752v-0.498l0.036-0.014l15.163,4.635  l7.449,2.279l0.397,0.645l-23.046-7.044V39.752z M33.271,45.923l-6.816-2.084l6.384-0.561l0.038,1.307  c0,0.007,0.01,0.005,0.011,0.011c0,0.006-0.009,0.007-0.008,0.014L33.271,45.923z M33.54,46.029l-0.083-0.137l-0.396-1.324  l-0.04-1.38l0.319-1.345l0.655-1.211l0.95-1.004l1.173-0.723l1.325-0.395l1.379-0.04l1.343,0.32l1.214,0.656l1.003,0.947  l0.723,1.174l0.396,1.324l0.04,1.38l-0.231,0.969l-0.055,0.228l-0.034,0.146l-0.077,0.143v0.001l0,0l-0.577,1.069l-0.95,1.004  l-0.724,0.447c0,0-0.002,0.001-0.003,0.001l-0.004,0.003l-0.442,0.271l-0.482,0.145l-0.842,0.252l-1.38,0.039l-1.344-0.32  l-1.214-0.656l-1.003-0.948l-0.095-0.155L33.54,46.029z M42.708,46.935c0.004-0.005,0.011-0.003,0.014-0.009l0.104-0.192  l-0.622,1.919l-1.049-0.319l0.568-0.351c0.003-0.001,0-0.007,0.002-0.008c0.006-0.004,0.013-0.002,0.018-0.008l0.965-1.021  C42.71,46.943,42.705,46.939,42.708,46.935z M40.507,48.729c0.001,0,0-0.004,0.002-0.005c0.007-0.001,0.013-0.001,0.02-0.005  l0.42-0.258l1.287,0.394l0,0h0.003l1.358,0.416l-0.147,0.48l-1.37-0.42l0,0l0,0h-0.001l-1.772-0.543L40.507,48.729z M42.111,49.533  l1.372,0.421c0.009,0.003,0.018,0.005,0.026,0.005c0.04,0,0.076-0.027,0.088-0.066l0.2-0.655c0.007-0.02-0.019-0.03-0.026-0.049  c0.026-0.006,0.054-0.015,0.066-0.041l0.001-0.003c0.022-0.044,0.004-0.099-0.042-0.121c-0.042-0.021-0.102-0.003-0.124,0.043  c-0.008,0.015,0.013,0.025,0.014,0.042l-1.307-0.4l0.929-2.866l0.081-0.148c0.002-0.005-0.005-0.008-0.004-0.013  c0.003-0.005,0.012-0.004,0.013-0.011l0.021-0.086h0.933v4.7l-2.426-0.18L42.111,49.533z M46.776,41.208  c-0.001-0.015-0.023-0.013-0.031-0.022l0.095-0.188l0.437,2.975l-2.622,1.311l0.1-0.195c0.002,0,0.004,0.001,0.006,0.001  c0.014,0,0.027-0.004,0.04-0.01l2.311-1.154c0.02-0.009,0.009-0.033,0.018-0.051c0.011-0.018,0.036-0.024,0.033-0.046L46.776,41.208  z M47.308,40.8c0,0.003-0.006,0.003-0.006,0.007l0.418,2.846c0.004,0.026,0.033,0.031,0.054,0.045  c0.01,0.008,0.006,0.028,0.021,0.031l1.064,0.203h-1.4l-0.462-3.142h0.308c0,0.002-0.003,0.002-0.003,0.003  C47.301,40.797,47.308,40.796,47.308,40.8z M54.299,40.8c0-0.004,0.006-0.003,0.006-0.007c0-0.001-0.002-0.001-0.002-0.003h0.306  l-0.462,3.142h-1.324l0.981-0.163c0.014-0.002,0.011-0.022,0.021-0.03c0.021-0.014,0.05-0.021,0.055-0.047l0.424-2.885  C54.304,40.803,54.299,40.803,54.299,40.8z M54.477,43.874c0.009,0.018-0.002,0.042,0.018,0.051l2.311,1.154  c0.013,0.006,0.026,0.01,0.041,0.01c0.002,0,0.003-0.001,0.006-0.001l0.101,0.195l-2.624-1.311l0.437-2.975l0.094,0.186  c-0.008,0.012-0.026,0.011-0.029,0.025l-0.386,2.619C54.439,43.849,54.466,43.856,54.477,43.874z M58.117,45.398h-0.898l-1.26-2.465  l1.427,0.102l0.662,2.042l0.044,0.258c0.001,0.007,0.011,0.005,0.013,0.011c0.001,0.006-0.008,0.009-0.005,0.014L58.117,45.398z   M54.688,50.708l-0.258,0.564l-0.316,0.547l-0.361,0.504l0,0l-0.418,0.477l-0.386,0.363L52.897,53.1l-0.146-0.234l-0.119-0.258  l-0.102-0.299l0,0l-0.077-0.314c0-0.002,0-0.002,0-0.002l-0.058-0.361l0,0l-0.034-0.379l0.002-0.002l-0.013-0.417l0.011-0.447  h-0.001v-0.002l0.001-0.001c0,0-0.001,0-0.001-0.001l0.051-0.668l0,0l0.085-0.625l0.114-0.552l0,0l0.151-0.506l0,0l0.176-0.428  l0.209-0.364l0.237-0.298l0.258-0.228l0.29-0.164l0.308-0.095l0.334-0.029h0.006l0,0l0.307,0.031l0.138,0.546l0,0l0.096,0.629l0,0  l0.034,0.615l-0.001,0.002l-0.027,0.636l-0.085,0.612l-0.147,0.612l-0.083,0.243L54.688,50.708L54.688,50.708z M46.794,50.352  l-0.083-0.243l-0.147-0.612l-0.085-0.612l-0.027-0.636l-0.001-0.002l0.034-0.615l0,0l0.097-0.629l0,0l0.137-0.546l0.308-0.031l0,0  h0.007l0.332,0.029l0.309,0.095l0.286,0.161l0.267,0.234l0.233,0.294l0.205,0.364l0.18,0.428l0,0l0.149,0.506l0,0l0.115,0.554  l0.084,0.623l0,0l0.051,0.668c0,0.001-0.001,0.001-0.001,0.001l0.001,0.001l0,0l-0.001,0.002l0.012,0.447l-0.012,0.417h0.001  l-0.035,0.381l0,0l-0.056,0.355l-0.079,0.326l-0.103,0.297l0,0l-0.118,0.256L48.708,53.1l-0.053,0.062l-0.387-0.363l-0.415-0.477  l0,0l-0.362-0.504l-0.316-0.547l-0.257-0.564l0,0L46.794,50.352z M46.44,46.608l-0.023,0.054c-0.001,0.001,0.003,0.002,0.002,0.004  c0,0.002-0.004,0.001-0.004,0.002l-0.117,0.331C46.298,47,46.299,47,46.299,47c-0.001,0.002-0.003,0.002-0.003,0.005l-0.091,0.335  c-0.001,0.003,0.003,0.003,0.003,0.005s-0.004,0-0.004,0.003l-0.063,0.338c0,0.001,0.003,0.001,0.003,0.004  c-0.002,0.001-0.004,0.001-0.004,0.002l-0.036,0.338c0,0.001,0.003,0.001,0.003,0.004s-0.004,0.001-0.004,0.004l-0.008,0.34  c0,0.003,0.003,0.004,0.003,0.007c0,0-0.002,0-0.002,0.001l0.019,0.339c0,0.001,0.004,0.001,0.004,0.003s-0.004,0.002-0.004,0.005  l0.047,0.339c0,0.003,0.004,0.001,0.004,0.004c0,0.001-0.003,0.003-0.003,0.004l0.073,0.335c0,0.001,0.004,0.001,0.004,0.004  c0,0.001-0.001,0.001-0.001,0.003l0.101,0.333c0,0.002,0.002,0.002,0.002,0.003c0.002,0.001-0.002,0.003-0.001,0.004l0.127,0.33  c0,0.001,0.004,0.001,0.004,0.003c0,0.001-0.003,0.002-0.001,0.003l0.091,0.193h-2.023v-4.647L46.44,46.608z M44.65,45.491  l2.637-1.317l0.017,2.066h-0.278c-0.003,0-0.003,0.005-0.005,0.005l0,0c-0.001,0-0.001-0.004-0.004-0.004l-0.381,0.04  c-0.003,0-0.003,0.005-0.005,0.005c-0.029,0.005-0.058,0.021-0.07,0.05l-0.046,0.104L44.65,45.491z M53,47.138  c-0.003,0.003-0.008,0-0.009,0.003l-0.215,0.376c-0.001,0.002,0.004,0.005,0.003,0.008c-0.003,0.002-0.007,0-0.008,0.002  l-0.183,0.442c-0.002,0.002,0.002,0.004,0.002,0.005c-0.001,0.002-0.005,0.001-0.006,0.004l-0.151,0.505  c-0.001,0.003,0.003,0.003,0.003,0.005s-0.004,0.002-0.004,0.003l-0.117,0.566c0,0.001,0.003,0.001,0.003,0.004  c-0.002,0.001-0.004,0.001-0.004,0.002l-0.085,0.625c0,0.001,0.002,0.002,0.002,0.004c0,0.001-0.002,0.001-0.002,0.002l-0.045,0.596  H49.42l-0.045-0.596c0-0.001-0.002-0.001-0.002-0.002c0-0.002,0.002-0.003,0.002-0.004l-0.083-0.625  c0-0.001-0.003-0.001-0.004-0.002c0-0.003,0.002-0.003,0.002-0.004l-0.118-0.566c0-0.001-0.004-0.001-0.004-0.003  c-0.001-0.002,0.004-0.002,0.003-0.005l-0.149-0.505c-0.002-0.003-0.006-0.002-0.007-0.004c0-0.001,0.004-0.003,0.003-0.005  l-0.185-0.442c-0.001-0.002-0.006,0-0.008-0.002c-0.001-0.003,0.004-0.006,0.003-0.008l-0.213-0.376  c-0.002-0.003-0.007,0-0.009-0.003c-0.002-0.002,0.003-0.006,0.001-0.009l-0.245-0.309c-0.003-0.003-0.008,0.002-0.01-0.001  c-0.004-0.004,0.002-0.009-0.002-0.012l-0.275-0.241c-0.004-0.002-0.008,0.004-0.013,0.002c-0.002-0.003,0.001-0.009-0.002-0.012  l-0.232-0.132h5.95l-0.233,0.132c-0.004,0.003,0,0.009-0.004,0.013c-0.004,0.003-0.008-0.005-0.012-0.001l-0.274,0.241  c-0.002,0.002,0.003,0.008-0.001,0.01c-0.003,0.003-0.008-0.002-0.011,0.001l-0.244,0.309C52.996,47.132,53.001,47.136,53,47.138z   M47.708,52.436c0.002,0.002,0.004,0.002,0.006,0.004c0.001,0-0.002,0.004,0,0.004l0.417,0.479c0.002,0.002,0.004,0.002,0.007,0.004  c0.001,0-0.001,0.002,0,0.004l0.399,0.377l-0.172,0.16l-0.21,0.145l-0.139,0.066l-0.039-0.107l-0.572-1.557L47.708,52.436z   M48.472,53.617c0.001-0.002-0.002-0.004,0.001-0.006s0.007,0,0.009-0.004l0.193-0.178c0.001-0.002-0.002-0.004,0-0.006  s0.006-0.002,0.009-0.004l0.048-0.059l0,0l0,0l0.004-0.004l0.119-0.148c0.002,0-0.001-0.004,0-0.004  c0.002-0.004,0.006-0.004,0.008-0.006l0.148-0.24c0.002-0.002-0.002-0.004-0.001-0.006s0.005-0.002,0.006-0.004l0.126-0.271  c0.001-0.002-0.002-0.002-0.001-0.004s0.004-0.002,0.005-0.004l0.104-0.301c0.001-0.002-0.003-0.002-0.003-0.006  c0.001-0.002,0.005,0,0.005-0.004l0.08-0.332c0-0.002-0.002-0.002-0.002-0.004s0.003,0,0.003-0.004l0.058-0.361  c0-0.002-0.003-0.002-0.003-0.002c0-0.002,0.003-0.002,0.003-0.004l0.035-0.391c0,0-0.002,0-0.002-0.002s0.004-0.002,0.004-0.004  l0.011-0.42c0-0.001-0.002-0.001-0.002-0.003c0-0.001,0.002-0.001,0.002-0.002l-0.009-0.355h2.745l-0.009,0.355  c0,0.001,0.002,0.001,0.002,0.002c0,0.002-0.002,0.002-0.002,0.003l0.013,0.42c0,0.002,0.002,0.002,0.002,0.002  c0,0.002-0.001,0.002-0.001,0.004l0.034,0.391c0,0,0.003,0,0.003,0.002s-0.003,0.002-0.003,0.004l0.058,0.361  c0,0.004,0.004,0.002,0.005,0.004c0,0.002-0.003,0.002-0.003,0.004l0.081,0.332c0,0.002,0.004,0.002,0.004,0.004  s-0.004,0.002-0.002,0.004l0.103,0.301c0.001,0.004,0.005,0.002,0.005,0.004c0.002,0.004-0.002,0.004-0.001,0.006l0.126,0.271  c0.001,0.002,0.005,0.002,0.006,0.004s-0.002,0.004-0.001,0.006l0.148,0.24c0.003,0.002,0.006,0.002,0.008,0.006  c0.001,0-0.002,0.004,0,0.004l0.119,0.148l0.004,0.004l0,0l0,0l0.048,0.059c0.003,0.002,0.007,0.002,0.009,0.004  s-0.001,0.004,0,0.006l0.193,0.178c0.003,0.004,0.006,0.002,0.009,0.004c0.001,0.002,0,0.004,0.001,0.006l0.14,0.096h-4.94  L48.472,53.617z M53.24,53.467l-0.173-0.16l0.399-0.377c0.002-0.002-0.001-0.004,0-0.004c0.002-0.002,0.005-0.002,0.007-0.004  l0.419-0.479c0.001,0-0.002-0.004,0-0.004c0.001-0.002,0.004-0.002,0.005-0.004l0.305-0.424l-0.037,0.098l-0.537,1.461l-0.039,0.109  l-0.14-0.068L53.24,53.467z M54.304,46.24l0.014-2.066l2.639,1.317l-1.866,0.948l-0.046-0.104c-0.003-0.007-0.012-0.01-0.016-0.016  c-0.01-0.013-0.018-0.024-0.031-0.03c-0.008-0.004-0.016-0.002-0.023-0.004c-0.004,0-0.002-0.005-0.005-0.005l-0.38-0.04  c-0.002,0-0.003,0.003-0.006,0.002c-0.001,0-0.001-0.003-0.003-0.003H54.304z M55.135,50.096c0.002-0.001-0.002-0.002-0.001-0.003  c0-0.002,0.003-0.002,0.004-0.003l0.128-0.33c0-0.001-0.002-0.003-0.001-0.004c0-0.001,0.004-0.001,0.004-0.003l0.101-0.333  c0-0.002-0.003-0.003-0.003-0.004c0.001-0.002,0.004-0.002,0.004-0.003l0.073-0.335c0-0.001-0.002-0.003-0.002-0.004  c0-0.003,0.004-0.001,0.004-0.004l0.045-0.339c0-0.003-0.003-0.003-0.003-0.005s0.003-0.002,0.003-0.003l0.02-0.339  c0-0.001-0.003-0.001-0.003-0.004c0-0.001,0.004-0.001,0.004-0.004l-0.009-0.34c0-0.003-0.004-0.001-0.004-0.004  s0.003-0.003,0.003-0.004l-0.036-0.338c0-0.001-0.003-0.001-0.003-0.002c0-0.003,0.002-0.003,0.002-0.004L55.4,47.348  c0-0.003-0.004-0.001-0.004-0.003c-0.001-0.002,0.004-0.002,0.003-0.005l-0.09-0.335c0-0.003-0.003-0.003-0.004-0.004  c0-0.001,0.001-0.001,0.001-0.003l-0.117-0.331c-0.001-0.001-0.004,0-0.004-0.002c-0.001-0.002,0.003-0.003,0.002-0.004  l-0.023-0.054l1.904-0.966v4.647h-2.024L55.135,50.096z M54.132,44.117l-0.014,2.123h-6.631l-0.015-2.123H54.132z M44.388,45.398  h-0.925l0.027-0.113l0.001-0.005l0.728-2.245l1.427-0.102L44.388,45.398z M47.855,53.771l0.024,0.066  c0.001,0.002,0.005,0.002,0.005,0.004c0.001,0.002-0.002,0.004-0.001,0.006c0.017,0.031,0.048,0.051,0.082,0.051h5.674  c0.034,0,0.067-0.02,0.083-0.051c0.001-0.002-0.003-0.004-0.002-0.006c0.002-0.002,0.004-0.002,0.005-0.004l0.024-0.066l3.524,3.602  l-6.472,1.523l-6.473-1.523L47.855,53.771z M57.254,50.284v-4.7h0.951l0.03,0.066l1.027,3.174l-1.365,0.417  c-0.049,0.015-0.076,0.066-0.061,0.114l0.171,0.562c0.012,0.039,0.049,0.065,0.088,0.065c0.009,0,0.018-0.001,0.026-0.005  l1.379-0.421l0.178,0.548L57.254,50.284z M58.789,46.761l0.808,0.974c0.004,0.006,0.011,0.004,0.017,0.008  c0.002,0.003-0.002,0.007,0.001,0.009l0.949,0.673l-1.125,0.345L58.789,46.761z M59.533,49.354L59.533,49.354L59.533,49.354  l-1.377,0.422l-0.117-0.387l1.365-0.419c0,0,0.002,0,0.003,0l0,0l1.345-0.411l0.006,0.004c0.007,0.005,0.014,0.004,0.021,0.008  c0.003,0,0,0.004,0.003,0.005l0.587,0.217L59.533,49.354L59.533,49.354z M60.855,48.407l-0.031-0.022h-0.002v-0.002l-0.007-0.005  c-0.002-0.001-0.002-0.001-0.003-0.002L59.73,47.61l-0.882-1.064l-0.444-0.969l-0.058-0.124l0,0v-0.001l-0.074-0.16l-0.042-0.248  l-0.19-1.114l0.128-1.371l0.48-1.296l0.797-1.125l1.062-0.883l1.253-0.574l1.365-0.234l1.371,0.129l1.295,0.479l1.126,0.799  l0.881,1.062l0.575,1.253l0.233,1.364l-0.127,1.371l-0.476,1.285v0.001l0,0l-0.003,0.008l-0.532,0.75l-0.267,0.377l-1.063,0.881  l-1.252,0.575l-1.364,0.234l-1.371-0.127l-0.451-0.168c-0.001-0.001-0.004-0.001-0.005-0.001l-0.009-0.004L60.855,48.407z   M68.65,44.944c0.002-0.005,0.012-0.005,0.012-0.011l0.122-1.312l6.276,0.371l-6.818,2.085l0.415-1.121  C68.658,44.952,68.65,44.949,68.65,44.944z M68.158,46.294l7.443-2.275l15.15-4.632l0.062,0.023v0.38l-23.038,7.043L68.158,46.294z   M8.796,38.486v-0.143v-3.164v-0.422h1.771v0.426v3.132v0.171H8.796z M10.567,38.67v0.102v0.418v0.47H8.796v-0.437v-0.02v-0.43  V38.67H10.567z M8.796,34.572v-0.259v-0.73h1.771v0.739v0.25H8.796z M8.347,35.322c-0.005,0.004,0.001,0.012-0.003,0.016  s-0.011-0.004-0.015,0.001l-0.309,0.374c-0.004,0.006,0.004,0.011,0.001,0.016c-0.002,0.004-0.012,0-0.014,0.005l-0.202,0.442  c-0.002,0.005,0.007,0.009,0.005,0.014S7.8,36.192,7.798,36.198l-0.08,0.479c-0.001,0.007,0.01,0.008,0.01,0.013  c0,0.007-0.01,0.007-0.01,0.012l0.048,0.483c0,0.007,0.009,0.005,0.011,0.011c0,0.005-0.009,0.007-0.006,0.013l0.17,0.454  c0.003,0.006,0.01,0.004,0.014,0.009c0.002,0.005-0.005,0.009-0.002,0.013l0.281,0.396c0.004,0.005,0.012,0.004,0.016,0.007  c0.002,0.004-0.001,0.008,0.001,0.011l0.36,0.297v0.185v0.052l-0.089-0.039l-0.436-0.359l-0.326-0.46l-0.197-0.529l-0.055-0.559  l0.095-0.562l0.232-0.512l0.359-0.437l0.416-0.296v0.254L8.347,35.322z M8.61,35.359v2.797l-0.234-0.193l-0.267-0.376l-0.163-0.433  l-0.044-0.456l0.077-0.459l0.19-0.418l0.294-0.356L8.61,35.359z M8.578,34.679c-0.006,0.003-0.002,0.011-0.007,0.015  c-0.005,0.002-0.009-0.007-0.014-0.003l-0.48,0.342c-0.005,0.004,0.002,0.011-0.002,0.015s-0.012-0.004-0.016,0.002l-0.374,0.454  c-0.004,0.005,0.004,0.01,0.001,0.016c-0.003,0.003-0.012,0-0.014,0.005l-0.244,0.535c-0.003,0.006,0.007,0.009,0.005,0.015  c-0.002,0.005-0.011,0.002-0.013,0.009l-0.098,0.58c-0.001,0.006,0.009,0.008,0.009,0.013s-0.009,0.005-0.009,0.012l0.058,0.586  c0,0.007,0.009,0.005,0.011,0.011c0,0.005-0.007,0.007-0.006,0.013l0.205,0.551c0.003,0.006,0.011,0.004,0.015,0.009  c0.001,0.005-0.005,0.009-0.003,0.013l0.342,0.479c0.004,0.005,0.012,0.004,0.015,0.008c0.003,0.003-0.001,0.008,0.002,0.01  l0.454,0.375c0.005,0.004,0.013,0.004,0.018,0.006c0.003,0.002,0,0.006,0.003,0.007l0.175,0.08v0.228l-0.297-0.137l-0.111-0.092  L7.798,38.5l-0.314-0.442l-0.071-0.101l-0.234-0.626L7.114,36.67l0.111-0.663L7.5,35.402l0.425-0.516L8.469,34.5l0.142-0.054v0.219  v0.002L8.578,34.679z M7.286,38.169l0.065,0.021l0.305,0.428c0.004,0.005,0.011,0.004,0.015,0.008  c0.003,0.004-0.001,0.007,0.002,0.01l0.343,0.282L7.14,38.649L7.286,38.169z M9.476,66.637v-0.428v-3.131v-0.17h1.771v0.141v3.164  v0.424H9.476z M11.246,66.822v0.26v0.729H9.476v-0.74v-0.248H11.246z M9.476,62.723v-0.092v-0.43v-0.023v-0.445h1.771v0.459v0.418  v0.113H9.476z M8.056,63.201l-0.157,0.051l-0.147-0.48l0.969-0.295l-0.343,0.281c-0.005,0.004,0.003,0.012-0.001,0.016  S8.364,62.77,8.36,62.775L8.056,63.201z M7.882,64.061l0.235-0.625l0.07-0.102l0.315-0.441l0.517-0.424l0.271-0.125v0.227  l-0.15,0.068c-0.005,0.004-0.001,0.012-0.005,0.016c-0.005,0.002-0.011-0.006-0.015-0.002l-0.453,0.375  c-0.006,0.004,0.002,0.01-0.002,0.016c-0.004,0.002-0.011-0.004-0.015,0.002l-0.343,0.48c-0.004,0.004,0.005,0.01,0.002,0.014  c-0.002,0.006-0.011,0-0.014,0.008L8.09,64.098c-0.002,0.004,0.008,0.008,0.007,0.014c-0.001,0.004-0.012,0.004-0.012,0.008  l-0.056,0.588c0,0.004,0.009,0.004,0.009,0.012c0,0.004-0.01,0.006-0.009,0.012l0.097,0.58c0.001,0.006,0.01,0.006,0.013,0.01  c0.001,0.006-0.008,0.008-0.005,0.014l0.243,0.535c0.003,0.006,0.011,0.004,0.014,0.01c0.003,0.004-0.003,0.008-0.001,0.01  l0.375,0.455c0.004,0.006,0.011,0.004,0.017,0.008c0.002,0.002-0.002,0.006,0.001,0.01l0.479,0.34  c0.005,0.004,0.012,0.004,0.018,0.008c0.003,0,0,0.004,0.003,0.004l0.008,0.004v0.012v0.209l-0.118-0.045L8.63,66.506L8.206,65.99  l-0.275-0.605l-0.112-0.664L7.882,64.061z M9.051,63.201c-0.005,0.004,0.002,0.012-0.002,0.016s-0.012-0.004-0.016,0l-0.309,0.375  c-0.004,0.006,0.004,0.01,0.002,0.016c-0.003,0.004-0.012,0-0.015,0.004l-0.201,0.443c-0.003,0.004,0.006,0.008,0.005,0.014  c-0.003,0.004-0.012,0.002-0.013,0.008l-0.08,0.48c-0.001,0.006,0.009,0.008,0.009,0.012c0,0.006-0.009,0.006-0.009,0.012  l0.047,0.484c0,0.006,0.009,0.006,0.012,0.01c0,0.006-0.008,0.008-0.007,0.014l0.17,0.453c0.003,0.008,0.011,0.004,0.015,0.01  c0.001,0.006-0.005,0.008-0.003,0.012l0.282,0.396c0.004,0.004,0.011,0.004,0.015,0.006c0.003,0.004-0.001,0.008,0.002,0.012  l0.335,0.275v0.244l-0.392-0.277L8.54,65.781L8.308,65.27l-0.095-0.561l0.054-0.559l0.198-0.529l0.327-0.459l0.436-0.359  l0.062-0.029v0.041v0.217L9.051,63.201z M9.29,63.256v2.758l-0.21-0.172l-0.267-0.375l-0.162-0.434l-0.045-0.455l0.078-0.461  l0.19-0.418l0.293-0.355L9.29,63.256z M92.132,62.814v0.141v3.164v0.424h-1.771v-0.428v-3.131v-0.17H92.132z M90.361,62.629v-0.102  v-0.418v-0.471h1.771v0.457v0.43v0.104H90.361z M92.132,66.727v0.26v0.73h-1.771v-0.738v-0.252H92.132z M93.735,63.158l-0.157-0.049  l-0.305-0.428c-0.004-0.006-0.011,0.002-0.016-0.002c-0.004-0.004,0.004-0.012-0.001-0.016l-0.145-0.119l0.741,0.227L93.735,63.158z   M93.131,62.799l0.315,0.443l0.07,0.1l0.235,0.625l0.063,0.662l-0.112,0.662l-0.275,0.605l-0.424,0.516l-0.543,0.389l-0.144,0.053  v-0.219v-0.002l0.034-0.014c0.003,0,0-0.004,0.003-0.004c0.005-0.004,0.013-0.004,0.018-0.008l0.479-0.34  c0.003-0.004-0.001-0.008,0.001-0.01c0.006-0.004,0.013-0.002,0.017-0.008l0.375-0.455c0.002-0.004-0.004-0.008-0.001-0.01  c0.003-0.006,0.011-0.004,0.014-0.01L93.5,65.24c0.003-0.006-0.006-0.008-0.005-0.014c0.003-0.004,0.012-0.004,0.013-0.01  l0.097-0.58c0.001-0.006-0.009-0.008-0.009-0.014s0.009-0.006,0.009-0.01l-0.056-0.588c0-0.004-0.011-0.004-0.012-0.008  c-0.001-0.008,0.009-0.01,0.007-0.014l-0.206-0.553c-0.003-0.004-0.012,0-0.014-0.006c-0.003-0.004,0.006-0.01,0.002-0.016  l-0.343-0.479c-0.004-0.006-0.01,0-0.015-0.004c-0.004-0.004,0.004-0.01-0.002-0.014l-0.453-0.375  c-0.005-0.004-0.01,0.004-0.015,0.002c-0.004-0.004,0-0.012-0.005-0.016l-0.177-0.08v-0.227l0.298,0.137l0.023,0.018L93.131,62.799z   M92.583,65.979c0.002-0.002-0.002-0.006,0.001-0.01c0.005-0.004,0.013-0.002,0.017-0.006l0.309-0.377  c0.002-0.004-0.004-0.008-0.002-0.012c0.004-0.004,0.012-0.004,0.015-0.008l0.201-0.441c0.003-0.006-0.006-0.008-0.005-0.014  c0.003-0.006,0.012-0.004,0.013-0.01l0.08-0.479c0.001-0.006-0.009-0.006-0.009-0.014c0-0.006,0.009-0.006,0.009-0.012l-0.047-0.482  c0-0.006-0.01-0.004-0.012-0.01c-0.001-0.006,0.009-0.008,0.007-0.014l-0.17-0.455c-0.003-0.004-0.012,0-0.015-0.006  c-0.002-0.004,0.007-0.01,0.003-0.016l-0.282-0.395c-0.004-0.006-0.011,0-0.015-0.004s0.004-0.012-0.002-0.016l-0.361-0.297v-0.184  v-0.053l0.089,0.041l0.436,0.359l0.327,0.459l0.198,0.529l0.054,0.559l-0.095,0.561l-0.232,0.512l-0.358,0.438l-0.418,0.297v-0.256  L92.583,65.979z M92.317,65.941v-2.799l0.236,0.193l0.267,0.377l0.162,0.432l0.045,0.457l-0.078,0.459l-0.19,0.418l-0.293,0.357  L92.317,65.941z"/><path fill="#000000" d="M62.23,48.585v0.002h0.005c0.002,0,0.003,0.001,0.004,0.001l0,0l1.262,0.117c0.004,0,0.007,0.001,0.01,0.001  c0.005,0,0.01-0.001,0.015-0.001l1.257-0.215c0.001,0,0.001-0.003,0.003-0.003c0.006-0.001,0.014-0.002,0.021-0.005l1.158-0.533  c0.003-0.001,0-0.005,0.003-0.006c0.005-0.003,0.013-0.003,0.018-0.007l0.982-0.813c0.003-0.003-0.001-0.007,0.002-0.011  c0.004-0.003,0.011-0.002,0.015-0.007l0.738-1.041c0.002-0.004-0.004-0.008-0.003-0.012c0.004-0.005,0.012-0.004,0.014-0.01  l0.443-1.196c0.001-0.005-0.006-0.008-0.006-0.013c0.002-0.005,0.011-0.005,0.011-0.01l0.118-1.271c0-0.006-0.009-0.006-0.009-0.011  c0-0.006,0.01-0.007,0.009-0.013l-0.215-1.259c-0.001-0.006-0.01-0.004-0.013-0.009c-0.001-0.005,0.008-0.009,0.006-0.014  l-0.533-1.159c-0.003-0.005-0.012-0.001-0.015-0.005c-0.002-0.005,0.006-0.011,0.002-0.016l-0.814-0.981  c-0.004-0.005-0.01,0.003-0.015-0.001c-0.004-0.004,0.002-0.012-0.003-0.016l-1.041-0.737c-0.005-0.004-0.01,0.005-0.015,0.003  c-0.006-0.003-0.002-0.012-0.007-0.015l-1.196-0.442c-0.005-0.003-0.007,0.007-0.014,0.006c-0.005-0.001-0.004-0.012-0.009-0.012  l-1.271-0.117c-0.004,0-0.007-0.002-0.009-0.002c-0.004,0-0.004,0.007-0.008,0.007s-0.004-0.005-0.008-0.005l-1.258,0.214  c-0.007,0.002-0.004,0.011-0.009,0.013c-0.006,0.002-0.009-0.008-0.015-0.005l-1.159,0.532c-0.005,0.002,0,0.011-0.005,0.014  s-0.011-0.005-0.015-0.001l-0.981,0.814c-0.005,0.004,0.002,0.011-0.002,0.016c-0.003,0.004-0.011-0.003-0.015,0.003l-0.737,1.041  c-0.004,0.005,0.005,0.01,0.002,0.015c-0.002,0.005-0.012,0.001-0.014,0.007l-0.443,1.195c-0.002,0.005,0.007,0.008,0.007,0.013  c-0.003,0.005-0.012,0.005-0.012,0.011l-0.118,1.271c-0.001,0.006,0.009,0.006,0.009,0.012c0,0.005-0.01,0.006-0.009,0.013  l0.215,1.257c0.001,0.006,0.01,0.005,0.013,0.01c0.001,0.005-0.008,0.008-0.005,0.013l0.531,1.159  c0.003,0.005,0.011,0.004,0.015,0.009c0.002,0.004-0.004,0.008-0.002,0.012l0.815,0.982c0.004,0.005,0.012,0.004,0.017,0.008  c0.002,0.002-0.002,0.006,0.001,0.009l1.041,0.737c0.007,0.004,0.013,0.004,0.02,0.007c0.002,0.001,0,0.004,0.002,0.005l1.196,0.443  C62.216,48.584,62.223,48.585,62.23,48.585z M60.066,47.247l-0.8-0.964l-0.521-1.135l-0.212-1.237l0.115-1.243l0.436-1.175  l0.724-1.021l0.962-0.8l1.135-0.521l1.239-0.212l1.243,0.115l1.174,0.436l1.021,0.723l0.798,0.964l0.522,1.135l0.212,1.239  l-0.116,1.242l-0.436,1.175l-0.722,1.021l-0.965,0.799l-1.135,0.521l-1.238,0.212l-1.243-0.115l-1.174-0.436L60.066,47.247z"/><path fill="#000000" d="M62.34,48.105L62.34,48.105l0.005,0.001c0.001,0,0.003,0.001,0.004,0.001l0,0l1.134,0.105  c0.004,0,0.006,0.002,0.009,0.002c0.005,0,0.01-0.002,0.016-0.002l1.131-0.192c0.001,0,0-0.003,0.003-0.003  c0.006-0.001,0.013-0.003,0.02-0.005l1.043-0.479c0.002-0.002,0-0.005,0.002-0.007c0.005-0.002,0.013-0.002,0.018-0.006l0.883-0.732  c0.003-0.003-0.001-0.007,0.001-0.011c0.004-0.004,0.012-0.002,0.016-0.008l0.662-0.936c0.003-0.004-0.003-0.007-0.002-0.013  c0.004-0.005,0.012-0.004,0.014-0.009l0.398-1.076c0.003-0.005-0.006-0.008-0.006-0.013c0.002-0.005,0.012-0.005,0.012-0.011  l0.106-1.141c0-0.005-0.009-0.005-0.009-0.012c0-0.005,0.01-0.006,0.009-0.013l-0.193-1.131c-0.001-0.007-0.01-0.004-0.013-0.009  c-0.001-0.006,0.008-0.009,0.005-0.015l-0.479-1.042c-0.002-0.005-0.011,0-0.014-0.005s0.005-0.011,0.001-0.016l-0.732-0.882  c-0.004-0.005-0.01,0.002-0.015-0.002c-0.004-0.003,0.002-0.011-0.003-0.015l-0.936-0.663c-0.005-0.004-0.011,0.005-0.016,0.003  c-0.005-0.003-0.001-0.012-0.006-0.014L64.33,39.36c-0.005-0.001-0.007,0.008-0.014,0.007c-0.005-0.001-0.004-0.012-0.009-0.012  l-1.142-0.106c-0.004,0-0.006-0.001-0.009-0.001c-0.004,0-0.004,0.006-0.008,0.006s-0.004-0.005-0.007-0.005l-1.132,0.193  c-0.006,0.001-0.004,0.01-0.009,0.013c-0.005,0.001-0.009-0.008-0.014-0.006l-1.042,0.479c-0.006,0.003,0,0.012-0.006,0.015  c-0.005,0.002-0.011-0.005-0.015-0.002l-0.883,0.733c-0.005,0.003,0.003,0.01-0.001,0.015c-0.005,0.004-0.012-0.002-0.016,0.003  l-0.662,0.936c-0.004,0.005,0.005,0.01,0.002,0.015c-0.002,0.006-0.011,0.002-0.014,0.007l-0.398,1.075  c-0.003,0.005,0.006,0.008,0.006,0.013c-0.002,0.005-0.011,0.005-0.011,0.01l-0.107,1.143c-0.001,0.006,0.01,0.006,0.01,0.012  c0,0.005-0.011,0.007-0.01,0.013l0.193,1.131c0.001,0.007,0.01,0.006,0.013,0.011c0.001,0.005-0.008,0.008-0.005,0.013l0.479,1.041  c0.003,0.005,0.01,0.004,0.014,0.009c0.003,0.004-0.004,0.008-0.001,0.012l0.732,0.883c0.004,0.006,0.012,0.004,0.017,0.008  c0.003,0.003-0.001,0.007,0.001,0.009l0.936,0.663c0.007,0.004,0.013,0.004,0.02,0.006c0.002,0.002,0,0.004,0.002,0.006l1.076,0.398  C62.324,48.103,62.332,48.105,62.34,48.105z M60.401,46.884l-0.718-0.864l-0.467-1.017l-0.19-1.112l0.104-1.114l0.391-1.054  l0.648-0.916l0.863-0.717l1.019-0.468l1.112-0.19l1.113,0.104l1.055,0.391l0.915,0.647l0.718,0.865l0.467,1.018l0.19,1.112  l-0.104,1.113l-0.392,1.056l-0.648,0.915l-0.863,0.717l-1.019,0.468l-1.111,0.19l-1.115-0.104l-1.054-0.391L60.401,46.884z"/><path fill="#000000" d="M62.45,47.625L62.45,47.625h0.005c0.002,0,0.003,0.002,0.004,0.002l0,0l1.004,0.093  c0.004,0,0.007,0.001,0.01,0.001c0.005,0,0.01-0.001,0.015-0.001l1.004-0.171c0.002,0,0.002-0.002,0.003-0.002  c0.007-0.002,0.014-0.003,0.021-0.005l0.926-0.426c0.002-0.001,0-0.005,0.002-0.006c0.005-0.003,0.013-0.003,0.018-0.007l0.783-0.65  c0.003-0.002-0.001-0.006,0.002-0.01c0.004-0.004,0.011-0.003,0.015-0.008l0.588-0.831c0.003-0.004-0.004-0.008-0.002-0.013  c0.004-0.005,0.011-0.003,0.014-0.009l0.354-0.955c0.001-0.005-0.007-0.008-0.007-0.013c0.003-0.005,0.012-0.005,0.012-0.01  l0.094-1.015c0-0.005-0.009-0.005-0.009-0.012c0-0.005,0.01-0.006,0.009-0.013l-0.17-1.003c-0.001-0.006-0.011-0.004-0.013-0.009  c-0.001-0.005,0.008-0.009,0.005-0.014l-0.425-0.926c-0.003-0.005-0.012-0.001-0.015-0.005c-0.002-0.005,0.005-0.01,0.002-0.016  l-0.65-0.783c-0.004-0.005-0.01,0.003-0.016-0.001c-0.004-0.004,0.003-0.012-0.002-0.016l-0.832-0.589  c-0.005-0.004-0.01,0.005-0.015,0.003c-0.006-0.003-0.002-0.012-0.007-0.015l-0.954-0.353c-0.006-0.003-0.008,0.008-0.015,0.007  c-0.005-0.002-0.004-0.012-0.009-0.012l-1.013-0.096c-0.004,0-0.007-0.001-0.009-0.001c-0.004,0-0.004,0.007-0.008,0.007  s-0.004-0.006-0.008-0.006l-1.004,0.172c-0.007,0.001-0.004,0.01-0.009,0.013c-0.006,0.001-0.009-0.008-0.015-0.005l-0.925,0.425  c-0.006,0.003,0,0.012-0.006,0.014c-0.005,0.003-0.011-0.005-0.015-0.001l-0.783,0.65c-0.005,0.004,0.002,0.01-0.002,0.015  c-0.003,0.004-0.011-0.002-0.015,0.003L59.8,41.857c-0.004,0.006,0.005,0.011,0.002,0.016c-0.002,0.005-0.011,0.001-0.014,0.007  l-0.353,0.954c-0.003,0.005,0.006,0.008,0.006,0.013c-0.003,0.005-0.012,0.005-0.012,0.011l-0.095,1.013  c0,0.006,0.009,0.006,0.009,0.012c0,0.005-0.01,0.006-0.009,0.013l0.171,1.004c0.002,0.006,0.011,0.005,0.013,0.01  c0.002,0.006-0.007,0.008-0.005,0.013l0.426,0.926c0.002,0.005,0.01,0.004,0.014,0.009c0.003,0.004-0.004,0.008-0.001,0.012  l0.649,0.783c0.004,0.005,0.012,0.004,0.017,0.008c0.003,0.002-0.001,0.006,0.001,0.009l0.832,0.588  c0.006,0.004,0.013,0.004,0.019,0.006c0.003,0.002,0,0.004,0.003,0.005l0.955,0.354C62.435,47.623,62.442,47.624,62.45,47.625z   M60.736,46.523l-0.635-0.765l-0.414-0.901l-0.169-0.984l0.093-0.985l0.346-0.934l0.575-0.811l0.764-0.635l0.901-0.414l0.985-0.169  l0.985,0.093l0.933,0.345l0.812,0.574l0.635,0.766l0.414,0.901l0.168,0.983l-0.092,0.986l-0.347,0.934l-0.572,0.812l-0.766,0.635  l-0.901,0.413l-0.985,0.168l-0.985-0.092l-0.933-0.346L60.736,46.523z"/><path fill="#000000" d="M67.627,55.236c-0.002-0.006,0.007-0.012,0.003-0.016l-0.777-1.014c-0.003-0.004-0.011,0.002-0.015-0.002  s0.002-0.012-0.003-0.016l-1.012-0.775c-0.005-0.004-0.01,0.006-0.015,0.002c-0.004-0.004,0-0.012-0.006-0.014l-1.178-0.488  c-0.005-0.002-0.009,0.008-0.014,0.006c-0.007-0.002-0.004-0.012-0.011-0.012l-1.266-0.168c-0.005,0-0.006,0.01-0.012,0.01  c-0.005-0.002-0.006-0.01-0.011-0.01l-1.265,0.168c-0.007,0-0.004,0.01-0.01,0.012s-0.01-0.008-0.015-0.006l-1.178,0.488  c-0.005,0.002-0.001,0.01-0.005,0.014c-0.006,0.004-0.011-0.006-0.016-0.002l-1.013,0.775c-0.006,0.004,0.001,0.012-0.003,0.016  s-0.012-0.002-0.016,0.002l-0.775,1.014c-0.004,0.004,0.005,0.01,0.003,0.016c-0.004,0.004-0.012,0-0.015,0.004l-0.488,1.178  c-0.003,0.006,0.008,0.01,0.006,0.016s-0.011,0.004-0.013,0.01l-0.166,1.264c-0.001,0.006,0.009,0.006,0.009,0.012  s-0.01,0.006-0.009,0.012l0.166,1.266c0.002,0.006,0.011,0.006,0.012,0.01c0.001,0.006-0.008,0.01-0.005,0.014l0.488,1.18  c0.003,0.004,0.011,0.002,0.013,0.008c0.003,0.004-0.003,0.008-0.001,0.012l0.775,1.012c0.004,0.006,0.012,0.004,0.017,0.008  c0.003,0.004-0.001,0.008,0.002,0.01l1.013,0.777c0.005,0.004,0.013,0.004,0.018,0.006c0.003,0.002,0,0.004,0.003,0.006l1.178,0.488  c0.008,0.004,0.016,0.004,0.023,0.006c0,0,0,0,0.001,0l1.265,0.166c0.004,0,0.008,0.002,0.011,0.002  c0.004,0,0.008-0.002,0.012-0.002l1.266-0.166c0,0,0,0,0.002,0c0.007-0.002,0.015-0.002,0.022-0.006l1.178-0.488  c0.003-0.002,0-0.004,0.003-0.006c0.005-0.002,0.013-0.002,0.018-0.006l1.012-0.777c0.003-0.002-0.001-0.006,0.002-0.01  c0.005-0.004,0.013-0.002,0.016-0.008l0.777-1.012c0.003-0.004-0.004-0.008-0.001-0.012c0.002-0.006,0.01-0.004,0.013-0.008  l0.488-1.18c0.003-0.004-0.006-0.008-0.005-0.014c0.001-0.004,0.01-0.004,0.012-0.01l0.166-1.266  c0.001-0.006-0.009-0.006-0.009-0.012s0.01-0.006,0.009-0.012l-0.166-1.264c-0.002-0.006-0.011-0.004-0.013-0.01  s0.009-0.01,0.006-0.016l-0.488-1.178C67.639,55.236,67.631,55.24,67.627,55.236z M68.119,57.719l-0.164,1.242l-0.479,1.154  l-0.764,0.994l-0.992,0.762l-1.155,0.479l-1.242,0.164l-1.24-0.164l-1.155-0.479l-0.994-0.762l-0.762-0.994l-0.479-1.154  l-0.163-1.242l0.163-1.24l0.479-1.154l0.762-0.994l0.994-0.762l1.155-0.479l1.24-0.164l1.242,0.164l1.155,0.479l0.992,0.762  l0.764,0.994l0.479,1.154L68.119,57.719z"/><path fill="#000000" d="M67.215,55.486c-0.003-0.004-0.01,0-0.014-0.004c-0.003-0.006,0.006-0.01,0.002-0.016l-0.698-0.91  c-0.004-0.006-0.011,0.002-0.015-0.002s0.002-0.012-0.003-0.016l-0.91-0.699c-0.005-0.004-0.01,0.006-0.016,0.004  c-0.004-0.004,0-0.012-0.005-0.016l-1.06-0.438c-0.006-0.004-0.009,0.006-0.015,0.006c-0.006-0.002-0.004-0.012-0.01-0.014  l-1.138-0.148c-0.005,0-0.006,0.008-0.012,0.008c-0.005,0-0.006-0.008-0.011-0.008l-1.137,0.148  c-0.006,0.002-0.004,0.012-0.01,0.014c-0.005,0-0.009-0.01-0.014-0.006l-1.061,0.438c-0.005,0.004-0.001,0.012-0.005,0.016  c-0.005,0.002-0.011-0.008-0.016-0.004l-0.91,0.699c-0.005,0.004,0.001,0.012-0.002,0.016c-0.004,0.004-0.012-0.004-0.016,0.002  l-0.698,0.91c-0.004,0.006,0.005,0.01,0.003,0.016c-0.004,0.004-0.012,0-0.015,0.004l-0.439,1.061  c-0.002,0.006,0.008,0.01,0.007,0.014c-0.003,0.008-0.012,0.004-0.013,0.01l-0.148,1.137c-0.001,0.006,0.009,0.006,0.009,0.012  s-0.01,0.006-0.009,0.012l0.148,1.137c0.001,0.008,0.01,0.006,0.012,0.012c0.001,0.006-0.008,0.008-0.006,0.014l0.439,1.059  c0.003,0.006,0.011,0.004,0.013,0.01c0.003,0.004-0.004,0.008-0.001,0.012l0.698,0.908c0.004,0.006,0.012,0.004,0.017,0.01  c0.002,0.002-0.001,0.006,0.001,0.008l0.91,0.699c0.005,0.004,0.013,0.004,0.018,0.006c0.003,0.002,0,0.004,0.003,0.006l1.061,0.439  c0.007,0.004,0.015,0.004,0.022,0.004l0.001,0.002l1.137,0.15c0.004,0,0.008,0,0.011,0c0.004,0,0.008,0,0.012,0l1.138-0.15  c0.001,0,0-0.002,0.001-0.002c0.008,0,0.016,0,0.023-0.004l1.06-0.439c0.003-0.002,0-0.004,0.003-0.006  c0.005-0.002,0.013-0.002,0.018-0.006l0.91-0.699c0.003-0.002-0.001-0.006,0.001-0.008c0.006-0.006,0.013-0.004,0.017-0.01  l0.698-0.908c0.003-0.004-0.004-0.008-0.001-0.012c0.003-0.006,0.01-0.004,0.013-0.01l0.438-1.059  c0.003-0.006-0.006-0.008-0.005-0.014c0.002-0.006,0.011-0.004,0.012-0.012l0.149-1.137c0.002-0.006-0.009-0.006-0.009-0.012  s0.011-0.006,0.009-0.012l-0.149-1.137c-0.001-0.006-0.01-0.002-0.013-0.01c-0.001-0.004,0.009-0.008,0.006-0.014L67.215,55.486z   M67.478,58.832l-0.428,1.037l-0.685,0.891l-0.891,0.684l-1.037,0.43l-1.114,0.146l-1.111-0.146l-1.037-0.43l-0.892-0.684  l-0.685-0.891l-0.429-1.037l-0.146-1.113l0.146-1.111l0.429-1.037l0.685-0.893l0.892-0.684l1.037-0.43l1.111-0.146l1.114,0.146  l1.037,0.43l0.891,0.684l0.685,0.893l0.428,1.037l0.147,1.111L67.478,58.832z"/><path fill="#000000" d="M67.183,56.697c-0.001-0.006-0.01-0.004-0.011-0.01c-0.002-0.004,0.008-0.008,0.005-0.014l-0.39-0.941  c-0.003-0.004-0.011,0-0.014-0.004c-0.003-0.006,0.006-0.01,0.002-0.016l-0.619-0.807c-0.004-0.006-0.012,0-0.016-0.004  s0.003-0.01-0.002-0.014l-0.81-0.621c-0.005-0.004-0.01,0.006-0.015,0.004c-0.004-0.004,0-0.012-0.005-0.014l-0.939-0.391  c-0.006-0.002-0.009,0.008-0.015,0.006s-0.004-0.012-0.01-0.012l-1.011-0.135c-0.005,0-0.006,0.01-0.012,0.01  c-0.005,0-0.006-0.01-0.011-0.01l-1.011,0.135c-0.007,0-0.004,0.01-0.009,0.012c-0.007,0-0.009-0.008-0.014-0.006l-0.941,0.391  c-0.005,0.002-0.001,0.01-0.005,0.014c-0.005,0.002-0.01-0.008-0.016-0.004l-0.807,0.621c-0.006,0.004,0.001,0.01-0.003,0.014  s-0.012-0.002-0.016,0.004l-0.619,0.807c-0.004,0.006,0.004,0.01,0.003,0.016c-0.004,0.004-0.012,0-0.015,0.004l-0.39,0.941  c-0.002,0.006,0.007,0.008,0.005,0.014c-0.001,0.004-0.01,0.004-0.011,0.01l-0.134,1.01c-0.001,0.006,0.009,0.006,0.009,0.012  s-0.01,0.006-0.009,0.012l0.134,1.01c0.001,0.008,0.01,0.006,0.011,0.012c0.002,0.004-0.007,0.006-0.005,0.012l0.39,0.941  c0.003,0.004,0.011,0.004,0.013,0.008c0.003,0.004-0.004,0.008-0.001,0.012l0.619,0.809c0.004,0.006,0.012,0.004,0.017,0.008  c0.003,0.004-0.001,0.008,0.002,0.01l0.807,0.619c0.006,0.004,0.013,0.004,0.019,0.008c0.002,0,0,0.004,0.002,0.004l0.941,0.391  c0.006,0.002,0.014,0.004,0.021,0.004c0.001,0,0,0.002,0.001,0.002l1.011,0.133c0.004,0,0.008,0.002,0.011,0.002  c0.004,0,0.008-0.002,0.012-0.002l1.011-0.133v-0.002c0.009,0,0.017,0,0.024-0.004l0.939-0.391c0.002,0,0-0.004,0.002-0.004  c0.005-0.004,0.013-0.004,0.018-0.008l0.81-0.619c0.002-0.002-0.002-0.006,0.001-0.01c0.005-0.004,0.013-0.002,0.017-0.008  l0.619-0.809c0.003-0.004-0.004-0.008-0.001-0.012c0.002-0.004,0.01-0.004,0.013-0.008l0.39-0.941  c0.003-0.006-0.007-0.008-0.005-0.012c0.001-0.006,0.01-0.004,0.011-0.012l0.134-1.01c0.001-0.006-0.009-0.006-0.009-0.012  s0.01-0.006,0.009-0.012L67.183,56.697z M67.002,58.703l-0.38,0.918l-0.605,0.791l-0.79,0.605l-0.916,0.379l-0.987,0.131  l-0.984-0.131l-0.918-0.379l-0.789-0.605l-0.605-0.791l-0.379-0.918l-0.131-0.984l0.131-0.984l0.379-0.918l0.605-0.789l0.789-0.605  l0.918-0.379l0.984-0.131l0.987,0.131l0.916,0.379l0.79,0.605l0.605,0.789l0.38,0.918l0.13,0.984L67.002,58.703z"/><path fill="#000000" d="M34.411,46.862c0.004,0.005,0.011,0.004,0.016,0.009c0.002,0.003-0.003,0.008,0,0.011l0.927,0.876  c0.005,0.003,0.012,0.003,0.017,0.006c0.002,0.003,0,0.007,0.002,0.008l1.123,0.606c0.006,0.004,0.014,0.004,0.02,0.005  c0.002,0.002,0.002,0.004,0.003,0.004l1.241,0.296c0.008,0.002,0.015,0.003,0.021,0.003c0.002,0,0.002,0,0.003,0l1.274-0.037l0,0  c0.009-0.001,0.017-0.001,0.024-0.004l1.223-0.364c0.001,0,0-0.004,0.002-0.005c0.007-0.001,0.013-0.001,0.02-0.005l1.087-0.669  c0.002-0.002,0-0.007,0.001-0.008c0.007-0.004,0.013-0.003,0.018-0.008l0.876-0.927c0.003-0.004-0.002-0.008,0-0.012  c0.004-0.005,0.012-0.004,0.015-0.009l0.606-1.123c0.003-0.004-0.005-0.008-0.004-0.012c0.003-0.005,0.012-0.004,0.013-0.01  l0.295-1.24c0.001-0.007-0.009-0.008-0.008-0.013c0-0.007,0.01-0.006,0.01-0.012l-0.035-1.276c0-0.006-0.011-0.005-0.012-0.01  c0-0.007,0.009-0.008,0.008-0.014l-0.364-1.223c-0.001-0.005-0.012-0.003-0.014-0.008s0.006-0.009,0.003-0.014l-0.669-1.086  c-0.004-0.005-0.01,0.001-0.015-0.004c-0.003-0.005,0.004-0.011,0-0.015l-0.929-0.878c-0.003-0.004-0.011,0.004-0.016,0  c-0.004-0.002,0.001-0.011-0.004-0.014l-1.123-0.605c-0.005-0.003-0.009,0.006-0.014,0.004c-0.005-0.003-0.001-0.012-0.008-0.013  l-1.24-0.296c-0.005-0.001-0.006,0.008-0.011,0.008c-0.006-0.002-0.006-0.011-0.011-0.011c-0.001,0-0.001,0-0.002,0l-1.276,0.037  c-0.006,0-0.005,0.01-0.01,0.012c-0.007,0-0.008-0.009-0.015-0.008l-1.223,0.364c-0.005,0.001-0.002,0.012-0.007,0.014  c-0.006,0.002-0.009-0.006-0.015-0.004l-1.086,0.67c-0.006,0.002,0,0.011-0.004,0.015c-0.006,0.003-0.012-0.004-0.016,0  l-0.876,0.927c-0.004,0.004,0.004,0.012,0,0.016c-0.004,0.005-0.012,0-0.014,0.005l-0.605,1.122  c-0.003,0.005,0.006,0.009,0.004,0.014c-0.003,0.006-0.012,0.002-0.013,0.008l-0.296,1.242c-0.002,0.006,0.007,0.007,0.007,0.013  s-0.01,0.005-0.01,0.011l0.035,1.275c0,0.006,0.011,0.005,0.012,0.01c0,0.006-0.009,0.009-0.008,0.014l0.366,1.223  c0.002,0.007,0.01,0.005,0.013,0.011c0.002,0.003-0.005,0.007-0.003,0.011L34.411,46.862z M33.548,44.489l-0.035-1.25l0.291-1.22  l0.591-1.098l0.862-0.91l1.063-0.655l1.201-0.357l1.252-0.037l1.219,0.291l1.097,0.592l0.912,0.863l0.654,1.062l0.358,1.201  l0.035,1.251l-0.289,1.219l-0.594,1.099l-0.861,0.91l-1.063,0.655l-1.201,0.357L37.79,48.5l-1.218-0.291l-1.101-0.595l-0.909-0.859  l-0.655-1.064L33.548,44.489z"/><path fill="#000000" d="M34.182,45.551c0.001,0.007,0.01,0.006,0.013,0.011c0.003,0.004-0.005,0.008-0.003,0.012l0.603,0.978  c0.003,0.005,0.01,0.003,0.015,0.009c0.003,0.002-0.002,0.007,0,0.01l0.834,0.787c0.005,0.004,0.012,0.004,0.017,0.007  c0.003,0.002,0,0.006,0.003,0.007l1.009,0.546c0.007,0.004,0.015,0.004,0.021,0.006c0.001,0.001,0.001,0.003,0.003,0.003  l1.114,0.266c0.008,0.001,0.014,0.003,0.021,0.003c0.001,0,0.001,0,0.003,0l1.147-0.033l0,0c0.009-0.001,0.017-0.001,0.024-0.004  l1.098-0.327c0.003-0.002,0-0.004,0.003-0.006c0.006-0.001,0.013-0.001,0.019-0.005l0.978-0.602c0.003-0.001,0-0.006,0.003-0.008  c0.005-0.004,0.012-0.002,0.017-0.008l0.787-0.832c0.002-0.003-0.003-0.008,0-0.011c0.004-0.005,0.011-0.004,0.014-0.009  l0.546-1.009c0.003-0.006-0.005-0.008-0.004-0.013c0.003-0.006,0.012-0.004,0.013-0.011l0.266-1.115  c0.001-0.007-0.009-0.008-0.008-0.013c0-0.007,0.01-0.006,0.01-0.012l-0.032-1.146c0-0.007-0.011-0.005-0.012-0.01  c0-0.007,0.009-0.01,0.008-0.015l-0.328-1.1c-0.001-0.005-0.011-0.002-0.014-0.007c-0.001-0.006,0.007-0.009,0.004-0.015  l-0.602-0.976c-0.004-0.006-0.011,0-0.016-0.004c-0.002-0.005,0.004-0.012,0-0.016l-0.833-0.788c-0.005-0.004-0.011,0.004-0.017,0  C40.9,40.1,40.905,40.091,40.9,40.089l-1.01-0.545c-0.004-0.003-0.009,0.006-0.014,0.004c-0.005-0.003-0.002-0.012-0.008-0.013  l-1.116-0.266c-0.005-0.001-0.006,0.008-0.011,0.008c-0.006-0.001-0.006-0.011-0.011-0.011c-0.001,0-0.001,0-0.002,0l-1.146,0.032  c-0.007,0-0.006,0.01-0.011,0.012c-0.006,0-0.009-0.009-0.014-0.008l-1.1,0.329c-0.005,0.001-0.002,0.011-0.008,0.014  c-0.005,0.001-0.009-0.007-0.014-0.004l-0.977,0.601c-0.005,0.002,0,0.012-0.004,0.015c-0.005,0.003-0.011-0.003-0.015,0  l-0.788,0.835c-0.004,0.005,0.003,0.011,0,0.016c-0.003,0.004-0.012-0.001-0.015,0.004l-0.544,1.01  c-0.003,0.005,0.006,0.009,0.003,0.014c-0.002,0.005-0.011,0.001-0.013,0.008l-0.265,1.116c-0.002,0.006,0.008,0.007,0.008,0.013  s-0.011,0.005-0.011,0.011l0.032,1.146c0,0.007,0.01,0.005,0.011,0.011c0,0.006-0.009,0.007-0.007,0.014L34.182,45.551z   M34.264,42.195l0.531-0.983l0.774-0.817l0.953-0.587l1.078-0.322l1.121-0.032l1.096,0.261l0.983,0.53l0.816,0.774l0.588,0.953  l0.321,1.078l0.033,1.122l-0.261,1.092l-0.534,0.988l-0.771,0.814l-0.955,0.588l-1.076,0.321l-1.124,0.033l-1.09-0.261l-0.988-0.534  l-0.816-0.771l-0.588-0.955l-0.321-1.076l-0.031-1.121L34.264,42.195z"/><path fill="#000000" d="M34.338,44.351c0,0.006,0.01,0.005,0.012,0.01c0,0.007-0.01,0.009-0.008,0.014l0.29,0.977  c0.002,0.007,0.011,0.005,0.013,0.01c0.003,0.004-0.005,0.008-0.002,0.012l0.534,0.867c0.004,0.005,0.011,0.004,0.016,0.009  c0.002,0.003-0.003,0.008,0,0.011l0.738,0.699c0.006,0.005,0.013,0.004,0.019,0.008c0.002,0.001,0,0.005,0.002,0.006l0.896,0.483  c0.005,0.004,0.013,0.003,0.019,0.006c0.002,0,0.002,0.004,0.003,0.004l0.99,0.234c0.008,0.001,0.016,0.003,0.021,0.003  c0.001,0,0.001,0,0.003,0l1.018-0.028l0,0c0.008-0.001,0.017-0.001,0.024-0.004l0.977-0.292c0.002-0.001,0-0.004,0.002-0.005  c0.007-0.001,0.013-0.001,0.02-0.005l0.865-0.533c0.003-0.002-0.001-0.007,0.002-0.008c0.006-0.004,0.013-0.003,0.018-0.008  l0.699-0.74c0.003-0.002-0.002-0.008,0-0.01c0.004-0.005,0.012-0.004,0.015-0.009l0.484-0.896c0.003-0.005-0.005-0.008-0.004-0.013  c0.003-0.005,0.012-0.004,0.013-0.01l0.235-0.99c0.001-0.007-0.009-0.008-0.008-0.013c0-0.007,0.01-0.006,0.01-0.012l-0.027-1.019  c0-0.006-0.011-0.005-0.012-0.01c0-0.007,0.009-0.008,0.008-0.014L41.93,42.11c-0.001-0.005-0.012-0.002-0.014-0.008  c-0.002-0.005,0.006-0.009,0.003-0.014l-0.533-0.867c-0.003-0.005-0.011,0.001-0.015-0.004c-0.003-0.005,0.004-0.011,0-0.015  l-0.74-0.7c-0.005-0.004-0.012,0.004-0.016,0c-0.005-0.002,0-0.011-0.005-0.014l-0.896-0.483c-0.005-0.003-0.009,0.006-0.014,0.004  c-0.005-0.003-0.001-0.012-0.008-0.013l-0.99-0.236c-0.005,0-0.006,0.008-0.011,0.008c-0.006-0.002-0.006-0.011-0.011-0.011  c-0.001,0-0.001,0-0.002,0l-1.019,0.029c-0.007,0-0.005,0.011-0.01,0.012c-0.007,0-0.008-0.009-0.015-0.008l-0.975,0.291  c-0.007,0.001-0.003,0.011-0.008,0.014c-0.005,0.001-0.009-0.006-0.014-0.004l-0.867,0.534c-0.005,0.003,0.001,0.012-0.004,0.016  c-0.005,0.003-0.012-0.004-0.016,0l-0.699,0.74c-0.004,0.005,0.004,0.012,0,0.017c-0.003,0.004-0.012-0.001-0.014,0.004  l-0.484,0.894c-0.002,0.005,0.007,0.009,0.004,0.016c-0.002,0.005-0.011,0.001-0.013,0.007l-0.235,0.99  c-0.002,0.007,0.007,0.008,0.007,0.013c0,0.007-0.01,0.006-0.01,0.012L34.338,44.351z M34.725,42.373l0.47-0.872l0.686-0.724  l0.845-0.521l0.953-0.284l0.993-0.029l0.97,0.231l0.871,0.47l0.724,0.686l0.519,0.844l0.286,0.953l0.028,0.994l-0.23,0.967  l-0.474,0.874l-0.683,0.723l-0.843,0.52l-0.955,0.285l-0.992,0.028l-0.971-0.229l-0.87-0.47l-0.723-0.686l-0.521-0.845l-0.284-0.955  l-0.029-0.992L34.725,42.373z"/><path fill="#000000" d="M33.945,58.867c0.001,0.008,0.011,0.006,0.012,0.012s-0.008,0.008-0.005,0.014l0.438,1.059  c0.003,0.006,0.011,0.004,0.013,0.01c0.003,0.004-0.003,0.008-0.001,0.012l0.698,0.908c0.004,0.006,0.012,0.004,0.017,0.01  c0.003,0.002-0.001,0.006,0.001,0.008l0.91,0.699c0.006,0.004,0.013,0.004,0.019,0.006c0.002,0.002,0,0.004,0.002,0.006l1.059,0.439  c0.008,0.004,0.016,0.004,0.023,0.004c0,0,0,0.002,0.001,0.002l1.138,0.15c0.004,0,0.008,0,0.012,0s0.007,0,0.011,0l1.138-0.15  c0.001,0,0-0.002,0-0.002c0.009,0,0.017,0,0.024-0.004l1.06-0.439c0.003-0.002,0-0.004,0.003-0.006  c0.005-0.002,0.013-0.002,0.018-0.006l0.909-0.699c0.003-0.002-0.001-0.006,0.001-0.008c0.005-0.006,0.013-0.004,0.017-0.01  l0.698-0.908c0.003-0.004-0.004-0.008-0.001-0.012c0.002-0.006,0.01-0.004,0.013-0.01l0.439-1.059  c0.002-0.006-0.007-0.008-0.006-0.014c0.002-0.006,0.011-0.004,0.012-0.012l0.15-1.137c0-0.006-0.01-0.006-0.01-0.012  s0.01-0.006,0.01-0.012l-0.15-1.137c-0.001-0.006-0.01-0.002-0.013-0.01c-0.001-0.004,0.009-0.008,0.007-0.014l-0.439-1.061  c-0.003-0.004-0.011,0-0.014-0.004c-0.003-0.006,0.006-0.01,0.002-0.016l-0.698-0.91c-0.004-0.006-0.012,0.002-0.015-0.002  c-0.004-0.004,0.002-0.012-0.003-0.016l-0.909-0.699c-0.005-0.004-0.01,0.006-0.015,0.004c-0.004-0.004,0-0.012-0.006-0.016  l-1.06-0.438c-0.005-0.004-0.009,0.006-0.014,0.006c-0.007-0.002-0.004-0.012-0.011-0.014l-1.138-0.148  c-0.005,0-0.006,0.008-0.011,0.008c-0.006,0-0.007-0.008-0.012-0.008l-1.138,0.148c-0.006,0.002-0.004,0.012-0.01,0.014  c-0.005,0-0.009-0.01-0.015-0.006l-1.059,0.438c-0.005,0.004-0.001,0.012-0.005,0.016c-0.005,0.002-0.01-0.008-0.016-0.004  l-0.91,0.699c-0.005,0.004,0.002,0.012-0.002,0.016s-0.012-0.004-0.016,0.002l-0.698,0.91c-0.004,0.006,0.005,0.01,0.003,0.016  c-0.004,0.004-0.012,0-0.015,0.004l-0.438,1.061c-0.003,0.006,0.006,0.01,0.006,0.014c-0.002,0.008-0.012,0.004-0.013,0.01  l-0.149,1.137c-0.002,0.006,0.009,0.006,0.009,0.012s-0.011,0.006-0.009,0.012L33.945,58.867z M34.127,56.607l0.429-1.037  l0.685-0.893l0.892-0.684l1.036-0.43l1.113-0.146l1.113,0.146l1.037,0.43l0.89,0.684l0.685,0.893l0.429,1.037l0.147,1.111  l-0.147,1.113l-0.429,1.037l-0.685,0.891l-0.89,0.684l-1.037,0.43l-1.113,0.146l-1.113-0.146l-1.036-0.43L35.24,60.76l-0.685-0.891  l-0.429-1.037l-0.147-1.113L34.127,56.607z"/><path fill="#000000" d="M34.423,58.74c0.001,0.008,0.01,0.006,0.012,0.012c0.001,0.004-0.008,0.006-0.006,0.012l0.391,0.941  c0.002,0.004,0.01,0.004,0.013,0.008c0.002,0.004-0.004,0.008-0.002,0.012l0.62,0.809c0.004,0.006,0.011,0.004,0.017,0.008  c0.002,0.004-0.002,0.008,0.001,0.01l0.808,0.619c0.005,0.004,0.013,0.004,0.018,0.008c0.002,0,0,0.004,0.002,0.004l0.941,0.391  c0.006,0.002,0.014,0.004,0.021,0.004c0.001,0,0,0.002,0,0.002l1.012,0.133c0.004,0,0.008,0.002,0.012,0.002  s0.007-0.002,0.011-0.002l1.011-0.133c0,0,0-0.002,0.001-0.002c0.008,0,0.016-0.002,0.022-0.004l0.94-0.391  c0.002,0,0-0.004,0.002-0.004c0.006-0.004,0.013-0.004,0.019-0.008l0.809-0.619c0.002-0.002-0.002-0.006,0.001-0.01  c0.005-0.004,0.013-0.002,0.017-0.008l0.619-0.809c0.003-0.004-0.004-0.008-0.001-0.012s0.01-0.004,0.013-0.008l0.39-0.941  c0.003-0.006-0.006-0.008-0.005-0.014s0.01-0.004,0.012-0.01l0.132-1.01c0.001-0.006-0.009-0.006-0.009-0.012  s0.01-0.006,0.009-0.012l-0.132-1.01c-0.002-0.006-0.011-0.002-0.013-0.01c-0.002-0.004,0.009-0.008,0.006-0.014l-0.39-0.941  c-0.003-0.004-0.01,0-0.014-0.004c-0.003-0.006,0.006-0.01,0.002-0.016l-0.619-0.807c-0.004-0.006-0.012,0-0.016-0.004  s0.003-0.01-0.002-0.014l-0.809-0.621c-0.006-0.004-0.011,0.006-0.016,0.004c-0.004-0.004,0-0.012-0.005-0.014l-0.94-0.391  c-0.006-0.002-0.01,0.006-0.015,0.006c-0.005-0.002-0.004-0.012-0.009-0.012l-1.011-0.135c-0.005,0-0.006,0.01-0.011,0.01  c-0.006,0-0.007-0.01-0.012-0.01l-1.011,0.135c-0.005,0-0.004,0.01-0.009,0.012c-0.005,0-0.009-0.008-0.014-0.006l-0.941,0.391  c-0.005,0.002-0.001,0.01-0.005,0.014c-0.005,0.002-0.01-0.008-0.015-0.004l-0.808,0.621c-0.005,0.004,0.001,0.01-0.003,0.014  s-0.011-0.002-0.015,0.004l-0.62,0.807c-0.004,0.006,0.005,0.01,0.003,0.016c-0.004,0.004-0.012,0-0.014,0.004l-0.391,0.941  c-0.002,0.006,0.007,0.008,0.006,0.014c-0.002,0.004-0.011,0.004-0.012,0.01l-0.134,1.01c-0.001,0.006,0.01,0.006,0.01,0.012  s-0.011,0.006-0.01,0.012L34.423,58.74z M34.604,56.734l0.38-0.918l0.605-0.789l0.788-0.605l0.918-0.379l0.985-0.131l0.984,0.131  l0.918,0.379l0.79,0.605l0.605,0.789l0.38,0.918l0.129,0.984l-0.129,0.984l-0.38,0.918l-0.605,0.791l-0.79,0.605l-0.918,0.379  l-0.984,0.131l-0.985-0.131l-0.918-0.379l-0.788-0.605l-0.605-0.791l-0.38-0.918l-0.131-0.984L34.604,56.734z"/><path fill="#000000" d="M33.47,58.996c0.001,0.006,0.01,0.006,0.011,0.01c0.002,0.006-0.007,0.01-0.005,0.014l0.487,1.18  c0.003,0.004,0.011,0.002,0.013,0.008c0.003,0.004-0.004,0.008-0.001,0.012l0.777,1.012c0.004,0.006,0.011,0.004,0.017,0.008  c0.002,0.004-0.002,0.008,0.001,0.01l1.012,0.777c0.005,0.004,0.013,0.004,0.018,0.006c0.003,0.002,0,0.004,0.003,0.006l1.179,0.488  c0.008,0.004,0.016,0.004,0.023,0.006c0.001,0,0,0,0,0l1.266,0.166c0.004,0,0.008,0.002,0.012,0.002s0.007-0.002,0.011-0.002  l1.265-0.166c0.001,0,0,0,0.001,0c0.008-0.002,0.016-0.002,0.023-0.006l1.18-0.488c0.002-0.002,0-0.004,0.002-0.006  c0.005-0.002,0.013-0.002,0.018-0.006l1.012-0.777c0.003-0.002-0.001-0.006,0.002-0.01c0.005-0.004,0.013-0.002,0.017-0.008  l0.776-1.012c0.003-0.004-0.004-0.008-0.001-0.012c0.003-0.006,0.01-0.004,0.013-0.008l0.487-1.18  c0.003-0.004-0.006-0.008-0.005-0.012c0.001-0.006,0.01-0.004,0.012-0.01l0.167-1.266c0.002-0.008-0.009-0.008-0.01-0.014  c0.001-0.006,0.012-0.006,0.01-0.012l-0.167-1.266c-0.002-0.006-0.011-0.004-0.012-0.01s0.008-0.008,0.005-0.014l-0.487-1.178  c-0.003-0.004-0.01,0-0.014-0.004c-0.003-0.006,0.006-0.012,0.002-0.016l-0.776-1.014c-0.004-0.004-0.012,0.002-0.016-0.002  s0.003-0.012-0.003-0.016l-1.012-0.775c-0.005-0.004-0.01,0.006-0.015,0.002c-0.004-0.004,0-0.012-0.005-0.014l-1.18-0.488  c-0.005-0.002-0.009,0.008-0.014,0.006c-0.007-0.002-0.004-0.012-0.011-0.012l-1.265-0.168c-0.005,0-0.006,0.01-0.011,0.01  c-0.006-0.002-0.007-0.01-0.012-0.01l-1.265,0.168c-0.006,0-0.004,0.01-0.01,0.012c-0.005,0.002-0.009-0.008-0.015-0.006  l-1.179,0.488c-0.005,0.002-0.002,0.01-0.005,0.014c-0.006,0.004-0.011-0.006-0.016-0.002l-1.012,0.775  c-0.005,0.004,0.001,0.012-0.003,0.016s-0.011-0.002-0.015,0.002l-0.777,1.014c-0.004,0.004,0.004,0.01,0.003,0.016  c-0.004,0.004-0.012,0-0.015,0.004l-0.487,1.178c-0.002,0.006,0.008,0.01,0.007,0.016c-0.003,0.006-0.012,0.004-0.013,0.01  l-0.167,1.264c-0.001,0.006,0.009,0.006,0.009,0.012s-0.01,0.006-0.009,0.012L33.47,58.996z M33.651,56.479l0.477-1.154l0.764-0.994  l0.992-0.762l1.157-0.479l1.24-0.164l1.24,0.164l1.156,0.479l0.993,0.762l0.763,0.994l0.478,1.154l0.165,1.24l-0.165,1.242  l-0.478,1.154l-0.763,0.994l-0.993,0.762l-1.156,0.479l-1.24,0.164l-1.24-0.164l-1.157-0.479l-0.992-0.762l-0.764-0.994  l-0.477-1.154l-0.164-1.242L33.651,56.479z"/><path fill="#000000" d="M10.13,36.663c-0.001-0.005-0.01-0.004-0.011-0.009c-0.002-0.007,0.009-0.009,0.006-0.015l-0.034-0.092  c-0.002-0.006-0.012-0.002-0.014-0.007c-0.003-0.005,0.006-0.01,0.002-0.016l-0.057-0.081c-0.004-0.005-0.012,0.002-0.016-0.002  s0.004-0.012-0.001-0.016l-0.077-0.063c-0.005-0.004-0.011,0.004-0.016,0.001c-0.005-0.002,0-0.011-0.005-0.014l-0.09-0.041  c-0.006-0.002-0.009,0.007-0.015,0.006c-0.005-0.003-0.002-0.012-0.009-0.013l-0.098-0.017c-0.005,0-0.006,0.009-0.013,0.009  c-0.005,0-0.005-0.009-0.01-0.009l-0.1,0.009c-0.006,0-0.004,0.01-0.01,0.012c-0.007,0.001-0.009-0.01-0.016-0.007l-0.093,0.035  c-0.005,0.003-0.001,0.011-0.006,0.015c-0.005,0.002-0.009-0.007-0.014-0.003l-0.082,0.058c-0.005,0.004,0.002,0.011-0.002,0.015  c-0.005,0.004-0.012-0.004-0.016,0.002l-0.063,0.076c-0.004,0.005,0.004,0.01,0.002,0.016c-0.003,0.006-0.012-0.001-0.015,0.006  l-0.04,0.091c-0.003,0.005,0.006,0.008,0.005,0.013c-0.003,0.005-0.012,0.003-0.013,0.009l-0.017,0.098  c-0.001,0.007,0.009,0.008,0.009,0.013c0,0.006-0.009,0.007-0.009,0.012l0.01,0.1c0,0.006,0.009,0.005,0.012,0.01  c0,0.005-0.009,0.008-0.006,0.013l0.034,0.093c0.002,0.005,0.01,0.004,0.014,0.01c0.001,0.004-0.005,0.008-0.003,0.012l0.058,0.081  c0.004,0.005,0.012,0.004,0.017,0.009c0.002,0.003-0.003,0.008,0.001,0.011l0.077,0.062c0.006,0.004,0.011,0.003,0.016,0.006  c0.003,0.001,0,0.005,0.003,0.006l0.09,0.042c0.008,0.003,0.015,0.004,0.021,0.005c0.001,0,0.001,0.003,0.003,0.003l0.098,0.017  c0.005,0,0.01,0.001,0.015,0.001c0.003,0,0.007-0.001,0.009-0.001l0.091-0.009l0,0c0.001,0,0.002,0,0.004-0.002h0.005v-0.001  c0.008,0,0.015-0.001,0.022-0.004l0.093-0.034c0.003-0.001,0-0.004,0.003-0.005c0.006-0.003,0.014-0.003,0.019-0.007l0.081-0.059  c0.003-0.002-0.001-0.006,0.002-0.009c0.005-0.004,0.011-0.002,0.017-0.007l0.063-0.076c0.002-0.004-0.004-0.008-0.002-0.012  c0.004-0.005,0.012-0.004,0.015-0.009l0.04-0.091c0.003-0.005-0.006-0.007-0.005-0.013c0.003-0.005,0.012-0.003,0.013-0.01  l0.017-0.098c0.001-0.007-0.009-0.008-0.009-0.013s0.009-0.007,0.009-0.012L10.13,36.663z M9.942,36.842l-0.029,0.066l-0.048,0.059  L9.804,37.01l-0.07,0.026l-0.071,0.008l-0.076-0.013l-0.07-0.033l-0.059-0.047l-0.041-0.06l-0.027-0.071l-0.008-0.07l0.015-0.082  l0.027-0.063l0.05-0.058l0.06-0.044l0.074-0.027l0.068-0.007l0.081,0.015l0.066,0.028l0.058,0.049l0.042,0.061l0.027,0.071  l0.007,0.071L9.942,36.842z"/><path fill="#000000" d="M92.334,36.808c0-0.005-0.011-0.004-0.012-0.009c-0.001-0.006,0.009-0.009,0.007-0.014l-0.035-0.093  c-0.002-0.005-0.011-0.001-0.014-0.006c-0.002-0.006,0.007-0.011,0.003-0.016l-0.059-0.081c-0.004-0.005-0.01,0.001-0.016-0.003  c-0.004-0.005,0.004-0.012-0.001-0.015l-0.076-0.063c-0.005-0.004-0.01,0.003-0.016,0.001c-0.003-0.003,0-0.012-0.005-0.014  l-0.09-0.041c-0.005-0.003-0.008,0.006-0.014,0.005c-0.006-0.002-0.003-0.012-0.009-0.013L91.9,36.431  c-0.006,0-0.006,0.008-0.013,0.009c-0.005-0.001-0.005-0.009-0.01-0.009l-0.099,0.009c-0.007,0-0.004,0.011-0.011,0.012  c-0.006,0.001-0.009-0.009-0.015-0.006l-0.093,0.035c-0.005,0.003-0.002,0.01-0.007,0.014c-0.005,0.003-0.009-0.006-0.014-0.002  l-0.081,0.057c-0.005,0.004,0.001,0.012-0.003,0.016s-0.012-0.004-0.015,0.001l-0.063,0.077c-0.004,0.006,0.003,0.011,0.001,0.016  c-0.003,0.005-0.012,0-0.014,0.005l-0.041,0.09c-0.003,0.006,0.006,0.01,0.005,0.015c-0.002,0.005-0.012,0.002-0.013,0.009  L91.4,36.875c-0.001,0.006,0.009,0.006,0.009,0.013c0,0.005-0.009,0.005-0.009,0.01l0.009,0.1c0,0.006,0.011,0.005,0.012,0.011  s-0.009,0.008-0.006,0.015l0.035,0.093c0.003,0.005,0.01,0.004,0.013,0.009c0.003,0.004-0.004,0.008-0.001,0.011l0.057,0.082  c0.004,0.005,0.012,0.004,0.017,0.009c0.003,0.002-0.003,0.008,0.001,0.01l0.078,0.062c0.004,0.004,0.01,0.002,0.015,0.005  c0.003,0.001,0,0.005,0.003,0.007l0.09,0.041c0.008,0.003,0.016,0.004,0.023,0.006c0,0,0,0.002,0.001,0.002l0.098,0.017  c0.005,0,0.01,0.001,0.016,0.001c0.002,0,0.006-0.001,0.009-0.001l0.09-0.009l0,0c0.001,0,0.003,0,0.003,0l0.006-0.001l0,0  c0.008-0.002,0.016-0.003,0.022-0.005l0.093-0.035c0.003-0.001,0-0.003,0.003-0.005c0.006-0.002,0.014-0.002,0.019-0.006  l0.082-0.059c0.002-0.003-0.002-0.007,0.001-0.009c0.005-0.004,0.013-0.003,0.017-0.008l0.062-0.076  c0.002-0.003-0.003-0.008-0.002-0.01c0.004-0.006,0.012-0.004,0.015-0.009l0.041-0.091c0.003-0.005-0.006-0.008-0.005-0.014  c0.003-0.005,0.012-0.004,0.013-0.01l0.017-0.099c0.001-0.006-0.009-0.007-0.009-0.013c0-0.005,0.009-0.006,0.009-0.011  L92.334,36.808z M92.147,36.986l-0.033,0.071l-0.046,0.056l-0.061,0.044l-0.071,0.026l-0.071,0.008l-0.076-0.013l-0.069-0.033  l-0.059-0.047l-0.042-0.059l-0.028-0.073l-0.006-0.069l0.014-0.081l0.029-0.065l0.048-0.059l0.06-0.042l0.074-0.028l0.068-0.006  l0.08,0.014l0.066,0.029l0.058,0.048l0.044,0.062l0.026,0.071l0.008,0.07L92.147,36.986z"/><path fill="#000000" d="M10.835,64.543c0-0.006-0.01-0.004-0.012-0.01c-0.001-0.006,0.009-0.008,0.007-0.014l-0.034-0.094  c-0.003-0.006-0.012-0.002-0.015-0.006c-0.002-0.006,0.007-0.01,0.003-0.016l-0.058-0.08c-0.003-0.006-0.01,0.002-0.015-0.002  c-0.004-0.004,0.004-0.012-0.001-0.016l-0.078-0.064c-0.004-0.004-0.009,0.004-0.014,0.002c-0.005-0.004,0-0.012-0.005-0.014  l-0.091-0.043c-0.006-0.002-0.009,0.008-0.015,0.006c-0.007-0.002-0.004-0.012-0.011-0.012L10.4,64.166  c-0.005,0-0.006,0.008-0.011,0.008c-0.006,0-0.006-0.008-0.011-0.008l-0.099,0.008c-0.007,0-0.004,0.012-0.011,0.012  c-0.005,0.002-0.009-0.008-0.014-0.006l-0.093,0.033c-0.006,0.004-0.001,0.012-0.006,0.016c-0.005,0.002-0.011-0.008-0.016-0.004  l-0.081,0.059c-0.005,0.004,0.001,0.012-0.003,0.016c-0.005,0.004-0.011-0.004-0.015,0.002l-0.063,0.076  c-0.002,0.002,0.002,0.004,0.001,0.008c-0.004,0.004-0.012,0.006-0.014,0.012l-0.041,0.09c-0.002,0.006,0.007,0.01,0.005,0.014  c-0.002,0.006-0.011,0.004-0.013,0.01l-0.017,0.098c-0.001,0.006,0.01,0.008,0.01,0.012c0,0.006-0.01,0.008-0.01,0.012l0.011,0.1  c0.001,0.006,0.009,0.006,0.012,0.01c0,0.006-0.01,0.008-0.007,0.014l0.034,0.094c0.003,0.004,0.011,0.004,0.014,0.008  c0.002,0.006-0.005,0.01-0.002,0.014l0.057,0.08c0.004,0.004,0.012,0.004,0.016,0.008c0.003,0.002-0.001,0.008,0.001,0.01  l0.078,0.062c0.005,0.004,0.013,0.004,0.018,0.008c0.002,0,0,0.004,0.002,0.006l0.091,0.041c0.006,0.004,0.014,0.004,0.02,0.004  c0.002,0,0.002,0.004,0.003,0.004l0.098,0.016c0.005,0,0.011,0.002,0.016,0.002c0.002,0,0.005-0.002,0.008-0.002l0.09-0.008h0.001  c0.003,0,0.004,0,0.005,0h0.003l0,0c0.009-0.002,0.017-0.004,0.025-0.006l0.093-0.035c0.002-0.002,0-0.006,0.002-0.006  c0.007-0.002,0.013-0.002,0.019-0.006l0.081-0.057c0.002-0.004-0.001-0.008,0.001-0.01c0.005-0.004,0.013-0.002,0.017-0.008  l0.063-0.076c0.003-0.004-0.004-0.008-0.001-0.012c0.004-0.006,0.011-0.004,0.014-0.01l0.041-0.092  c0.002-0.004-0.007-0.006-0.004-0.012c0.001-0.004,0.01-0.002,0.011-0.01l0.017-0.098c0.002-0.006-0.009-0.008-0.009-0.012  c0-0.006,0.009-0.008,0.009-0.012L10.835,64.543z M10.647,64.725l-0.028,0.062l-0.05,0.059l-0.06,0.043l-0.075,0.029l-0.066,0.006  l-0.082-0.014l-0.065-0.029l-0.059-0.049l-0.042-0.061l-0.026-0.072l-0.008-0.07l0.014-0.08l0.029-0.064l0.049-0.059l0.061-0.043  l0.071-0.027l0.071-0.006l0.076,0.012l0.07,0.033l0.058,0.047l0.042,0.059l0.026,0.072l0.008,0.07L10.647,64.725z"/><path fill="#000000" d="M90.798,64.635c0,0.008,0.01,0.006,0.011,0.01c0.002,0.008-0.009,0.012-0.006,0.016l0.035,0.094  c0.003,0.004,0.011,0.004,0.013,0.008c0.003,0.004-0.004,0.008-0.001,0.012l0.058,0.082c0.003,0.004,0.011,0.004,0.015,0.008  c0.003,0.004-0.001,0.008,0.001,0.01l0.078,0.062c0.005,0.004,0.013,0.004,0.018,0.008c0.003,0,0,0.004,0.003,0.006l0.09,0.041  c0.006,0.004,0.014,0.004,0.021,0.004c0.001,0,0.001,0.004,0.002,0.004l0.098,0.016c0.006,0,0.011,0.002,0.016,0.002  c0.003,0,0.005-0.002,0.008-0.002l0.09-0.008c0.001,0,0.001,0,0.001,0c0.003,0,0.004-0.002,0.006-0.002h0.002l0,0  c0.009,0,0.017-0.002,0.025-0.004l0.093-0.035c0.003-0.002,0-0.006,0.003-0.006c0.006-0.002,0.013-0.002,0.018-0.006l0.081-0.057  c0.003-0.004-0.001-0.008,0.001-0.01c0.006-0.004,0.013-0.002,0.017-0.008l0.062-0.076c0.003-0.004-0.004-0.008-0.001-0.012  c0.004-0.004,0.011-0.004,0.014-0.008l0.042-0.092c0.002-0.006-0.007-0.008-0.005-0.014c0.002-0.004,0.011-0.004,0.013-0.01  l0.017-0.098c0.001-0.006-0.01-0.008-0.01-0.012c0-0.006,0.01-0.008,0.01-0.012l-0.011-0.1c0-0.006-0.01-0.004-0.012-0.008  c-0.001-0.008,0.01-0.01,0.007-0.016l-0.034-0.092c-0.003-0.006-0.012-0.002-0.014-0.006c-0.003-0.008,0.006-0.012,0.002-0.018  l-0.059-0.08c-0.004-0.004-0.01,0.002-0.015-0.002c-0.004-0.004,0.002-0.01-0.002-0.014l-0.076-0.064  c-0.003-0.004-0.009,0.004-0.014,0.002c-0.005-0.004,0-0.012-0.005-0.014l-0.09-0.043c-0.006-0.002-0.009,0.008-0.016,0.006  c-0.005-0.002-0.003-0.012-0.009-0.014l-0.098-0.016c-0.007,0-0.008,0.01-0.013,0.01c-0.007,0-0.005-0.01-0.012-0.01l-0.099,0.01  c-0.007,0-0.004,0.01-0.009,0.012c-0.007,0.002-0.009-0.008-0.015-0.006l-0.093,0.033c-0.005,0.004-0.001,0.012-0.006,0.016  c-0.005,0.002-0.01-0.008-0.016-0.004l-0.081,0.059c-0.005,0.004,0.001,0.012-0.002,0.016c-0.006,0.004-0.012-0.004-0.016,0.002  l-0.063,0.076c-0.001,0.002,0.003,0.004,0,0.006c-0.003,0.006-0.01,0.008-0.013,0.014l-0.041,0.09  c-0.002,0.006,0.007,0.01,0.006,0.014c-0.003,0.006-0.012,0.004-0.013,0.01l-0.017,0.098c-0.002,0.006,0.009,0.006,0.009,0.012  s-0.009,0.006-0.009,0.012L90.798,64.635z M90.986,64.455l0.029-0.064l0.049-0.059l0.061-0.043l0.071-0.027l0.071-0.008l0.076,0.014  l0.069,0.033l0.055,0.045l0.047,0.064l0.025,0.068l0.008,0.07l-0.014,0.078l-0.03,0.068l-0.048,0.059l-0.06,0.041l-0.074,0.027  l-0.067,0.008l-0.081-0.014l-0.066-0.029l-0.059-0.049l-0.042-0.061l-0.027-0.074l-0.007-0.066L90.986,64.455z"/><text x="0" y="115" fill="#000000" font-size="5px" font-weight="bold" font-family="'Helvetica Neue', Helvetica, Arial-Unicode, Arial, Sans-serif">Created by Lluisa Iborra</text><text x="0" y="120" fill="#000000" font-size="5px" font-weight="bold" font-family="'Helvetica Neue', Helvetica, Arial-Unicode, Arial, Sans-serif">from the Noun Project</text></svg>